<?xml version="1.0" encoding="iso-8859-1"?>
<!-- Generator: Adobe Illustrator 19.0.0, SVG Export Plug-In . SVG Version: 6.00 Build 0)  -->
<svg version="1.1" id="Capa_1" xmlns="http://www.w3.org/2000/svg" xmlns:xlink="http://www.w3.org/1999/xlink" x="0px" y="0px"
	 viewBox="0 0 512 512" style="enable-background:new 0 0 512 512;" xml:space="preserve">
<path style="fill:#F2F2F2;" d="M490.667,512H21.333C9.6,512,0,502.4,0,490.667V21.333C0,9.6,9.6,0,21.333,0h469.333
	C502.4,0,512,9.6,512,21.333v469.333C512,502.4,502.4,512,490.667,512z"/>
<g>
	<path style="fill:#40596B;" d="M219.733,142.933V38.4c0-10.667-8.533-19.2-19.2-19.2l0,0c-10.667,0-19.2,8.533-19.2,19.2v104.533
		H219.733z"/>
	<path style="fill:#40596B;" d="M107.733,376.533V38.4c0-10.667-8.533-19.2-19.2-19.2l0,0c-10.667,0-19.2,8.533-19.2,19.2v339.2
		c0,2.133,1.067,3.2,3.2,3.2h32C105.6,380.8,107.733,378.667,107.733,376.533z"/>
</g>
<g>
	<path style="fill:#84DBFF;" d="M68.267,384v88.533c0,9.6,6.4,19.2,17.067,21.333c11.733,2.133,22.4-7.467,22.4-19.2V384
		c0,0,0-1.067-1.067-1.067L68.267,384C68.267,382.933,68.267,384,68.267,384z"/>
	<path style="fill:#84DBFF;" d="M180.267,142.933v329.6c0,9.6,6.4,19.2,17.067,21.333c11.733,2.133,22.4-7.467,22.4-19.2V144
		c0,0,0-1.067-1.067-1.067H180.267C180.267,141.867,180.267,142.933,180.267,142.933z"/>
</g>
<path style="fill:#40596B;" d="M331.733,327.467V38.4c0-10.667-8.533-19.2-19.2-19.2s-19.2,8.533-19.2,19.2v289.067H331.733z"/>
<path style="fill:#84DBFF;" d="M292.267,301.867v172.8c0,10.667,8.533,19.2,19.2,19.2l0,0c10.667,0,19.2-8.533,19.2-19.2v-172.8
	H292.267z"/>
<path style="fill:#40596B;" d="M443.733,186.667V38.4c0-10.667-8.533-19.2-19.2-19.2l0,0c-10.667,0-19.2,8.533-19.2,19.2v148.267
	c0,2.133,1.067,3.2,3.2,3.2h32C442.667,190.933,443.733,188.8,443.733,186.667z"/>
<path style="fill:#84DBFF;" d="M404.267,187.733v284.8c0,9.6,6.4,19.2,17.067,21.333c11.733,2.133,22.4-7.467,22.4-19.2V187.733
	c0,0,0-1.067-1.067-1.067L404.267,187.733C405.333,186.667,404.267,187.733,404.267,187.733z"/>
<circle style="fill:#FF7058;" cx="87.467" cy="373.333" r="51.2"/>
<circle style="fill:#FFFFFF;" cx="87.467" cy="373.333" r="28.8"/>
<g>
	<circle style="fill:#FF7058;" cx="199.467" cy="138.667" r="51.2"/>
	<circle style="fill:#FF7058;" cx="312.533" cy="309.333" r="51.2"/>
	<circle style="fill:#FF7058;" cx="424.533" cy="202.667" r="51.2"/>
</g>
<g>
	<circle style="fill:#FFFFFF;" cx="199.467" cy="138.667" r="28.8"/>
	<circle style="fill:#FFFFFF;" cx="312.533" cy="309.333" r="28.8"/>
	<circle style="fill:#FFFFFF;" cx="424.533" cy="202.667" r="28.8"/>
</g>
<g>
</g>
<g>
</g>
<g>
</g>
<g>
</g>
<g>
</g>
<g>
</g>
<g>
</g>
<g>
</g>
<g>
</g>
<g>
</g>
<g>
</g>
<g>
</g>
<g>
</g>
<g>
</g>
<g>
</g>
</svg>
