<?xml version="1.0" encoding="utf-8"?>
<!-- Generator: Adobe Illustrator 21.0.2, SVG Export Plug-In . SVG Version: 6.00 Build 0)  -->
<svg version="1.1" id="Capa_1" xmlns="http://www.w3.org/2000/svg" xmlns:xlink="http://www.w3.org/1999/xlink" x="0px" y="0px"
	 viewBox="0 0 58 58" style="enable-background:new 0 0 58 58;" xml:space="preserve">
<style type="text/css">
	.st0{fill:#E7ECED;}
	.st1{fill:#F3705A;}
	.st2{fill:#AFB6BB;}
</style>
<path class="st0" d="M54.8,50H3.2C1.4,50,0,48.6,0,46.8V11.2C0,9.4,1.4,8,3.2,8h51.6c1.8,0,3.2,1.4,3.2,3.2v35.6
	C58,48.6,56.6,50,54.8,50z"/>
<path class="st1" d="M21.2,36.1l-3.8-1.9c-0.3-0.1-0.4-0.4-0.4-0.7v-1.2c1.9-0.8,3-2.5,3.6-4.5c0.8-0.3,1.4-1,1.4-1.9v-1
	c0-0.8-0.4-1.4-1.1-1.8C20.5,19.5,18,18,14,18c-0.2,0-0.4,0-0.6,0c-1.4,0.1-2.7-0.1-3.9-0.9c-0.5-0.3-0.9-0.7-1.1-1
	c-0.1-0.2-0.4-0.1-0.4,0.1c0,0.4,0.1,0.8,0.2,1.2c0.3,1.7,0.1,1.4-0.5,3c-0.4,0.9-0.6,1.8-0.7,2.8C6.4,23.6,6,24.2,6,25v1
	c0,0.9,0.6,1.6,1.4,1.9c0.5,2,1.7,3.6,3.6,4.5v1.1c0,0.3-0.2,0.6-0.4,0.7l-3.9,1.9C5.7,36.7,5,37.8,5,39v0.9c0,0,0,0.3,0,0.4
	c0,1.1,4,1.7,9,1.7s9-0.6,9-1.7c0-0.1,0-0.4,0-0.4v-0.8C23,37.8,22.3,36.7,21.2,36.1z"/>
<g>
	<path class="st2" d="M29,22h10c0.6,0,1-0.4,1-1s-0.4-1-1-1H29c-0.6,0-1,0.4-1,1S28.4,22,29,22z"/>
	<path class="st2" d="M43,22h1c0.6,0,1-0.4,1-1s-0.4-1-1-1h-1c-0.6,0-1,0.4-1,1S42.4,22,43,22z"/>
	<path class="st2" d="M30,37h-1c-0.6,0-1,0.4-1,1s0.4,1,1,1h1c0.6,0,1-0.4,1-1S30.6,37,30,37z"/>
	<path class="st2" d="M36,37h-2c-0.6,0-1,0.4-1,1s0.4,1,1,1h2c0.6,0,1-0.4,1-1S36.6,37,36,37z"/>
	<path class="st2" d="M41,37h-1c-0.6,0-1,0.4-1,1s0.4,1,1,1h1c0.6,0,1-0.4,1-1S41.6,37,41,37z"/>
	<path class="st2" d="M47,37h-2c-0.6,0-1,0.4-1,1s0.4,1,1,1h2c0.6,0,1-0.4,1-1S47.6,37,47,37z"/>
	<path class="st2" d="M50.3,37.3C50.1,37.5,50,37.7,50,38s0.1,0.5,0.3,0.7c0.2,0.2,0.5,0.3,0.7,0.3s0.5-0.1,0.7-0.3
		c0.2-0.2,0.3-0.5,0.3-0.7s-0.1-0.5-0.3-0.7C51.3,36.9,50.7,36.9,50.3,37.3z"/>
	<path class="st2" d="M29,28h22c0.6,0,1-0.4,1-1s-0.4-1-1-1H29c-0.6,0-1,0.4-1,1S28.4,28,29,28z"/>
	<path class="st2" d="M51,32H29c-0.6,0-1,0.4-1,1s0.4,1,1,1h22c0.6,0,1-0.4,1-1S51.6,32,51,32z"/>
</g>
</svg>
