<?xml version="1.0" encoding="iso-8859-1"?>
<!-- Generator: Adobe Illustrator 19.0.0, SVG Export Plug-In . SVG Version: 6.00 Build 0)  -->
<svg version="1.1" id="Layer_1" xmlns="http://www.w3.org/2000/svg" xmlns:xlink="http://www.w3.org/1999/xlink" x="0px" y="0px"
	 viewBox="0 0 512.001 512.001" style="enable-background:new 0 0 512.001 512.001;" xml:space="preserve">
<polygon style="fill:#3E3B43;" points="399.744,105.565 512,105.565 512,139.996 343.614,139.996 343.614,105.565 "/>
<polygon style="fill:#376642;" points="343.614,195.078 343.614,136.995 512,136.995 512,388.431 343.614,388.431 343.614,326.766 
	"/>
<g>
	<rect x="343.617" y="388.435" style="fill:#3E3B43;" width="168.384" height="29.346"/>
	<polygon style="opacity:0.4;fill:#3E3B43;enable-background:new    ;" points="467.221,105.565 467.221,330.236 467.221,359.582 
		343.614,359.582 343.614,388.431 343.614,417.777 512,417.777 512,388.431 512,139.996 512,136.995 512,105.565 	"/>
</g>
<polygon style="fill:#FFDA44;" points="244.352,230.488 244.352,293.745 382.702,293.745 382.702,346.16 466.746,262.116 
	382.702,178.072 382.702,230.488 299.981,230.488 "/>
<g>
	<path style="fill:#CD2A00;" d="M18.302,134.534h21.4c3.66,0,5.773,3.519,5.773,7.321c0,3.239-1.831,7.04-5.773,7.04h-21.4v28.298
		h39.843c3.66,0,5.773,3.801,5.773,8.166c0,3.801-1.831,7.884-5.773,7.884H8.025c-4.083,0-8.025-1.971-8.025-5.772V96.098
		c0-3.801,3.942-5.772,8.025-5.772h50.121c3.942,0,5.773,4.082,5.773,7.884c0,4.364-2.112,8.166-5.773,8.166H18.302V134.534z"/>
	<path style="fill:#CD2A00;" d="M105.589,154.807l-20.555,36.184c-0.985,1.689-2.816,2.957-5.068,2.957
		c-4.927,0-11.967-4.083-11.967-9.151c0-0.985,0.423-2.112,1.126-3.38l24.357-39.702L69.97,102.153
		c-0.844-1.408-1.267-2.675-1.267-3.942c0-4.928,6.476-8.589,11.685-8.589c2.816,0,4.786,1.549,6.053,3.942l19.147,34.494
		l19.149-34.494c1.408-2.393,3.238-3.942,6.194-3.942c5.209,0,11.685,3.66,11.685,8.589c0,1.267-0.423,2.533-1.267,3.942
		l-23.511,39.562l24.357,39.702c0.703,1.267,0.985,2.394,0.985,3.38c0,5.068-6.899,9.151-11.967,9.151
		c-2.252,0-4.083-1.268-4.927-2.957L105.589,154.807z"/>
	<path style="fill:#CD2A00;" d="M153.595,95.957c0-3.942,4.506-5.632,9.151-5.632c4.506,0,9.151,1.69,9.151,5.632v91.514
		c0,3.801-4.646,5.772-9.151,5.772c-4.646,0-9.151-1.97-9.151-5.772V95.957z"/>
	<path style="fill:#CD2A00;" d="M247.36,90.326c3.942,0,5.773,4.223,5.773,8.166c0,4.365-2.112,8.307-5.773,8.307h-20.556v80.673
		c0,3.801-4.646,5.772-9.151,5.772c-4.647,0-9.151-1.971-9.151-5.772v-80.673h-20.696c-3.661,0-5.773-3.801-5.773-8.307
		c0-3.943,1.831-8.166,5.773-8.166C187.807,90.326,247.36,90.326,247.36,90.326z"/>
	<path style="fill:#CD2A00;" d="M18.302,362.965h21.4c3.66,0,5.773,3.519,5.773,7.321c0,3.239-1.831,7.04-5.773,7.04h-21.4v28.298
		h39.843c3.66,0,5.773,3.801,5.773,8.166c0,3.801-1.831,7.884-5.773,7.884H8.025c-4.083,0-8.025-1.971-8.025-5.772v-91.373
		c0-3.801,3.942-5.772,8.025-5.772h50.121c3.942,0,5.773,4.082,5.773,7.884c0,4.364-2.112,8.166-5.773,8.166H18.302V362.965z"/>
	<path style="fill:#CD2A00;" d="M105.589,383.238l-20.555,36.184c-0.985,1.689-2.816,2.957-5.068,2.957
		c-4.927,0-11.967-4.083-11.967-9.151c0-0.985,0.423-2.112,1.126-3.379l24.357-39.702L69.97,330.584
		c-0.844-1.408-1.267-2.675-1.267-3.942c0-4.928,6.476-8.589,11.685-8.589c2.816,0,4.786,1.549,6.053,3.942l19.147,34.494
		l19.149-34.494c1.408-2.393,3.238-3.942,6.194-3.942c5.209,0,11.685,3.66,11.685,8.589c0,1.267-0.423,2.533-1.267,3.942
		l-23.511,39.563l24.357,39.702c0.703,1.267,0.985,2.394,0.985,3.379c0,5.068-6.899,9.151-11.967,9.151
		c-2.252,0-4.083-1.268-4.927-2.957L105.589,383.238z"/>
	<path style="fill:#CD2A00;" d="M153.595,324.388c0-3.942,4.506-5.632,9.151-5.632c4.506,0,9.151,1.69,9.151,5.632v91.514
		c0,3.801-4.646,5.772-9.151,5.772c-4.646,0-9.151-1.971-9.151-5.772V324.388z"/>
	<path style="fill:#CD2A00;" d="M247.36,318.757c3.942,0,5.773,4.223,5.773,8.166c0,4.365-2.112,8.307-5.773,8.307h-20.556v80.673
		c0,3.801-4.646,5.772-9.151,5.772c-4.647,0-9.151-1.971-9.151-5.772V335.23h-20.696c-3.661,0-5.773-3.801-5.773-8.307
		c0-3.943,1.831-8.166,5.773-8.166L247.36,318.757L247.36,318.757z"/>
</g>
<g>
</g>
<g>
</g>
<g>
</g>
<g>
</g>
<g>
</g>
<g>
</g>
<g>
</g>
<g>
</g>
<g>
</g>
<g>
</g>
<g>
</g>
<g>
</g>
<g>
</g>
<g>
</g>
<g>
</g>
</svg>
