<?xml version="1.0" encoding="iso-8859-1"?>
<!-- Generator: Adobe Illustrator 19.0.0, SVG Export Plug-In . SVG Version: 6.00 Build 0)  -->
<svg version="1.1" id="Layer_1" xmlns="http://www.w3.org/2000/svg" xmlns:xlink="http://www.w3.org/1999/xlink" x="0px" y="0px"
	 viewBox="0 0 490.606 490.606" style="enable-background:new 0 0 490.606 490.606;" xml:space="preserve">
<g>
	<path style="fill:#71D1D1;" d="M407.917,82.688C364.482,39.253,306.73,15.332,245.303,15.332v30.663
		c54.507,0,103.967,22.002,139.985,57.581l1.743,1.743c35.579,36.018,57.581,85.478,57.581,139.985S422.61,349.271,387.03,385.289
		l-1.742,1.742c-36.018,35.58-85.478,57.581-139.986,57.581v30.663c61.428,0,119.178-23.922,162.614-67.357
		c43.436-43.436,67.358-101.187,67.358-162.614C475.275,183.876,451.353,126.124,407.917,82.688z"/>
	<path style="fill:#A0E0E0;" d="M105.318,387.03l-1.741-1.741c-35.58-36.018-57.582-85.478-57.582-139.985
		c0-54.508,22.002-103.968,57.582-139.986l1.742-1.742c36.018-35.579,85.477-57.581,139.984-57.581V15.332
		c-61.427,0-119.179,23.922-162.614,67.357c-43.436,43.436-67.358,101.188-67.358,162.615s23.922,119.178,67.358,162.614
		c43.436,43.435,101.187,67.357,162.614,67.357v-30.663C190.795,444.612,141.336,422.61,105.318,387.03z"/>
	<path style="fill:#FBB03B;" d="M227.405,385.413c-32.669,0-63.032-9.859-88.288-26.756c0.131,2.117-0.605,4.278-2.223,5.896
		l-16.082,16.082c31.03,28.567,71.87,46.622,116.826,48.474v-22.826c0-4.233,3.432-7.665,7.665-7.665
		c4.233,0,7.666,3.432,7.666,7.665v22.826c44.956-1.852,85.797-19.907,116.827-48.474l-16.082-16.082
		c-2.994-2.993-2.994-7.847,0-10.84c2.992-2.994,7.848-2.994,10.84,0l16.082,16.082c28.567-31.03,46.622-71.871,48.474-116.826
		h-22.826c-4.233,0-7.665-3.432-7.665-7.665c0-4.233,3.432-7.665,7.665-7.665h22.826c-1.852-44.956-19.907-85.797-48.474-116.827
		l-16.082,16.082c-1.214,1.215-2.736,1.928-4.314,2.157c16.526,25.074,26.154,55.098,26.154,87.374
		C386.393,314.231,315.212,385.413,227.405,385.413z"/>
	<path style="fill:#FBB03B;" d="M352.29,128.027c0.358-0.711,0.83-1.38,1.424-1.974l16.082-16.082
		c-31.03-28.567-71.871-46.622-116.827-48.474v7.995C293.087,75.977,328.178,97.466,352.29,128.027z"/>
	<path style="fill:#FBB03B;" d="M237.637,67.773v-6.276c-28.312,1.167-54.989,8.764-78.614,21.362
		c20.714-9.884,43.9-15.423,68.381-15.423C230.844,67.436,234.253,67.558,237.637,67.773z"/>
	<path style="fill:#FBB03B;" d="M68.816,237.638c-0.258-3.705-0.399-7.443-0.399-11.214c0-27.355,6.911-53.096,19.079-75.575
		c-15.362,25.572-24.695,55.159-25.998,86.788h7.318V237.638z"/>
	<path style="fill:#FBB03B;" d="M70.635,252.969h-9.138c1.852,44.955,19.907,85.796,48.474,116.826l16.082-16.082
		c0.999-0.999,2.207-1.658,3.482-1.99C98.945,327.795,77.349,292.908,70.635,252.969z"/>
	<path style="fill:#FCC062;" d="M68.816,237.638h15.507c1.901,0,3.636,0.696,4.976,1.842c-4.224-11.74-6.531-24.395-6.531-37.589
		c0-29.961,11.871-57.146,31.162-77.12l-3.959-3.959c-8.468,9.198-16.004,19.264-22.476,30.038
		c-12.168,22.479-19.079,48.219-19.079,75.575C68.417,230.195,68.558,233.933,68.816,237.638z"/>
	<path style="fill:#FCC062;" d="M304.832,201.89c0,12.507-2.069,24.53-5.882,35.748h76.671c4.233,0,7.666,3.432,7.666,7.665
		c0,4.233-3.432,7.665-7.666,7.665h-83.216c-18.488,35.617-55.702,59.953-98.604,59.953c-1.727,0-3.445-0.045-5.153-0.123
		l-30.073,30.073c-1.496,1.497-3.459,2.245-5.42,2.245s-3.924-0.748-5.42-2.245c-2.994-2.994-2.994-7.847,0-10.84l21.781-21.781
		c-34.904-7.789-63.606-32.006-77.573-64.117c-0.414,3.842-3.666,6.836-7.619,6.836H70.635c6.714,39.939,28.31,74.826,58.9,98.754
		c2.546-0.663,5.364-0.005,7.358,1.99c1.376,1.376,2.112,3.144,2.223,4.944c25.257,16.897,55.62,26.756,88.288,26.756
		c87.807,0,158.988-71.182,158.988-158.988c0-32.277-9.627-62.3-26.154-87.374c-0.367,0.053-0.736,0.089-1.106,0.089
		c-1.961,0-3.924-0.748-5.42-2.245c-2.4-2.4-2.871-5.993-1.424-8.867c-24.112-30.561-59.203-52.049-99.321-58.535v14.831
		c0,4.233-3.432,7.665-7.666,7.665c-4.233,0-7.665-3.432-7.665-7.665v-16.55c-3.384-0.215-6.794-0.337-10.232-0.337
		c-24.481,0-47.667,5.539-68.381,15.423c-13.888,7.406-26.724,16.536-38.212,27.112l4.513,4.513
		c18.865-14.8,42.639-23.625,68.476-23.625C255.121,90.858,304.832,140.569,304.832,201.89z"/>
	<path style="fill:#FDD089;" d="M252.969,268.3c0,4.233-3.432,7.665-7.666,7.665c-4.233,0-7.665-3.432-7.665-7.665v-4.491
		l-48.99,48.99c1.708,0.078,3.425,0.123,5.153,0.123c42.902,0,80.116-24.336,98.604-59.953h-39.436V268.3z"/>
	<path style="fill:#FDD089;" d="M89.299,239.48c1.644,1.406,2.69,3.491,2.69,5.824c0,0.281-0.017,0.557-0.047,0.83
		c13.967,32.111,42.669,56.329,77.573,64.117l57.281-57.282h-4.491c-4.233,0-7.666-3.432-7.666-7.665
		c0-4.233,3.432-7.665,7.666-7.665h15.332V114.986c0-4.233,3.432-7.666,7.665-7.666c4.233,0,7.666,3.432,7.666,7.666v111.811
		l3.176-3.176c2.993-2.994,7.848-2.994,10.84,0c2.994,2.994,2.994,7.847,0,10.84l-3.177,3.177h35.142
		c3.813-11.218,5.882-23.241,5.882-35.748c0-61.321-49.711-111.032-111.032-111.032c-25.837,0-49.611,8.826-68.476,23.625
		l11.569,11.569c2.995,2.993,2.995,7.847,0,10.84c-1.496,1.497-3.459,2.245-5.42,2.245s-3.924-0.748-5.42-2.245L113.93,124.77
		c-19.29,19.974-31.162,47.159-31.162,77.12C82.769,215.085,85.075,227.74,89.299,239.48z M197.064,204.729l-22.996,22.997
		c-1.497,1.497-3.46,2.245-5.421,2.245s-3.924-0.748-5.42-2.245c-2.993-2.994-2.994-7.848-0.001-10.841l22.997-22.997
		c2.995-2.995,7.849-2.994,10.841-0.001C200.056,196.882,200.057,201.735,197.064,204.729z M140.229,178.558l45.994-45.995
		c2.992-2.994,7.848-2.994,10.84,0c2.995,2.993,2.995,7.846,0,10.84l-45.994,45.995c-1.496,1.497-3.459,2.245-5.42,2.245
		s-3.924-0.748-5.42-2.245C137.234,186.404,137.234,181.551,140.229,178.558z M109.565,209.221l7.666-7.666
		c2.994-2.994,7.847-2.993,10.841-0.001c2.994,2.993,2.995,7.848,0.001,10.841l-7.665,7.666c-1.497,1.497-3.46,2.245-5.421,2.245
		s-3.923-0.748-5.42-2.244C106.573,217.068,106.572,212.214,109.565,209.221z"/>
	<path d="M418.758,71.847C372.427,25.517,310.826,0.001,245.303,0.001S118.179,25.517,71.848,71.847
		C25.516,118.179,0,179.781,0,245.303s25.516,127.124,71.848,173.455c46.331,46.331,107.933,71.847,173.455,71.847
		s127.124-25.516,173.455-71.847c46.332-46.332,71.848-107.933,71.848-173.455S465.09,118.179,418.758,71.847z M245.303,475.274
		c-61.427,0-119.178-23.922-162.614-67.357C39.253,364.481,15.331,306.73,15.331,245.303c0-61.428,23.922-119.179,67.358-162.615
		c43.435-43.435,101.187-67.357,162.614-67.357s119.179,23.922,162.614,67.357c43.436,43.436,67.358,101.188,67.358,162.615
		s-23.922,119.178-67.358,162.614S306.73,475.274,245.303,475.274z"/>
	<path d="M103.576,105.318c-35.58,36.018-57.582,85.478-57.582,139.986s22.002,103.967,57.582,139.985l1.741,1.741
		c36.018,35.58,85.477,57.582,139.985,57.582s103.968-22.002,139.986-57.581l1.742-1.742c35.58-36.018,57.582-85.478,57.582-139.985
		c0-54.508-22.002-103.967-57.581-139.985l-1.743-1.743c-36.018-35.58-85.478-57.582-139.985-57.582s-103.966,22.002-139.984,57.581
		L103.576,105.318z M109.972,120.811l3.959,3.959l12.123,12.123c1.496,1.497,3.458,2.245,5.42,2.245c1.961,0,3.924-0.748,5.42-2.245
		c2.995-2.993,2.995-7.847,0-10.84l-11.569-11.569l-4.513-4.513c11.488-10.576,24.324-19.707,38.212-27.112
		c23.625-12.598,50.302-20.195,78.614-21.362v6.276v16.55c0,4.233,3.432,7.665,7.665,7.665c4.233,0,7.666-3.432,7.666-7.665V69.492
		v-7.995c44.956,1.852,85.797,19.907,116.827,48.474l-16.082,16.082c-0.594,0.594-1.065,1.262-1.424,1.974
		c-1.448,2.874-0.977,6.467,1.424,8.867c1.496,1.497,3.459,2.245,5.42,2.245c0.37,0,0.739-0.035,1.106-0.089
		c1.578-0.229,3.1-0.942,4.314-2.157l16.082-16.082c28.567,31.03,46.622,71.871,48.474,116.827h-22.826
		c-4.233,0-7.665,3.432-7.665,7.665c0,4.233,3.432,7.665,7.665,7.665h22.826c-1.852,44.955-19.907,85.796-48.474,116.826
		l-16.082-16.082c-2.992-2.994-7.848-2.994-10.84,0c-2.994,2.993-2.994,7.847,0,10.84l16.082,16.082
		c-31.03,28.567-71.871,46.622-116.827,48.474v-22.826c0-4.233-3.432-7.665-7.666-7.665c-4.233,0-7.665,3.432-7.665,7.665v22.826
		c-44.955-1.852-85.796-19.907-116.826-48.474l16.082-16.082c1.618-1.618,2.354-3.779,2.223-5.896
		c-0.111-1.8-0.847-3.569-2.223-4.944c-1.994-1.995-4.813-2.653-7.358-1.99c-1.275,0.332-2.483,0.99-3.482,1.99l-16.082,16.082
		c-28.567-31.03-46.622-71.871-48.474-116.826h9.138h13.688c3.953,0,7.205-2.993,7.619-6.836c0.03-0.273,0.047-0.549,0.047-0.83
		c0-2.333-1.046-4.418-2.69-5.824c-1.34-1.146-3.075-1.842-4.976-1.842H68.816h-7.318c1.303-31.629,10.636-61.216,25.998-86.788
		C93.968,140.076,101.504,130.01,109.972,120.811z"/>
	<path d="M147.735,342.872c1.496,1.497,3.459,2.245,5.42,2.245s3.924-0.748,5.42-2.245l30.073-30.073l48.99-48.99v4.491
		c0,4.233,3.432,7.665,7.665,7.665c4.233,0,7.666-3.432,7.666-7.665v-15.331h39.436h83.216c4.233,0,7.666-3.432,7.666-7.665
		c0-4.233-3.432-7.665-7.666-7.665H298.95h-35.142l3.177-3.177c2.994-2.993,2.994-7.846,0-10.84c-2.993-2.994-7.848-2.994-10.84,0
		l-3.176,3.176V114.986c0-4.233-3.432-7.666-7.666-7.666c-4.233,0-7.665,3.432-7.665,7.666v122.652h-15.332
		c-4.233,0-7.666,3.432-7.666,7.665c0,4.233,3.432,7.665,7.666,7.665h4.491l-57.281,57.282l-21.781,21.781
		C144.74,335.025,144.74,339.878,147.735,342.872z"/>
	<path style="fill:#FFFFFF;" d="M145.649,191.643c1.962,0,3.924-0.748,5.42-2.245l45.994-45.995c2.995-2.994,2.995-7.847,0-10.84
		c-2.992-2.994-7.848-2.994-10.84,0l-45.994,45.995c-2.994,2.994-2.994,7.847,0,10.84
		C141.725,190.895,143.688,191.643,145.649,191.643z"/>
	<path style="fill:#FFFFFF;" d="M114.986,222.306c1.961,0,3.924-0.748,5.421-2.245l7.665-7.666
		c2.994-2.994,2.993-7.848-0.001-10.841s-7.847-2.993-10.841,0.001l-7.666,7.666c-2.993,2.994-2.992,7.848,0.001,10.841
		C111.063,221.558,113.025,222.306,114.986,222.306z"/>
	<path style="fill:#FFFFFF;" d="M186.222,193.889l-22.997,22.997c-2.993,2.993-2.992,7.847,0.001,10.841
		c1.496,1.496,3.459,2.245,5.42,2.245c1.962,0,3.924-0.748,5.421-2.245l22.996-22.997c2.994-2.993,2.993-7.847-0.001-10.841
		C194.07,190.895,189.216,190.894,186.222,193.889z"/>
</g>
<g>
</g>
<g>
</g>
<g>
</g>
<g>
</g>
<g>
</g>
<g>
</g>
<g>
</g>
<g>
</g>
<g>
</g>
<g>
</g>
<g>
</g>
<g>
</g>
<g>
</g>
<g>
</g>
<g>
</g>
</svg>
