<?xml version="1.0" encoding="iso-8859-1"?>
<!-- Generator: Adobe Illustrator 18.0.0, SVG Export Plug-In . SVG Version: 6.00 Build 0)  -->
<!DOCTYPE svg PUBLIC "-//W3C//DTD SVG 1.1//EN" "http://www.w3.org/Graphics/SVG/1.1/DTD/svg11.dtd">
<svg version="1.1" id="Capa_1" xmlns="http://www.w3.org/2000/svg" xmlns:xlink="http://www.w3.org/1999/xlink" x="0px" y="0px"
	 viewBox="0 0 512 512" style="enable-background:new 0 0 512 512;" xml:space="preserve">
<g>
	<path style="fill:#003953;" d="M434.67,152.921c0.084-0.082,0.184-0.135,0.268-0.218L451.641,136
		c9.75-9.766,9.703-25.703-0.125-35.515c-9.813-9.828-25.758-9.876-35.516-0.125l-16.055,16.056
		C364.838,86.933,320.559,68.063,272,64.631V32h32c8.801,0,16-7.2,16-16s-7.199-16-16-16h-96c-8.801,0-16,7.2-16,16s7.199,16,16,16
		h32v32.631c-47.828,3.379-91.527,21.71-126.379,50.436L98.922,100.36c-9.766-9.751-25.703-9.703-35.523,0.125
		c-9.82,9.813-9.867,25.749-0.117,35.515l15.313,15.314C49.406,189.141,32,236.525,32,288c0,123.712,100.289,224,224,224
		s224-100.288,224-224C480,237.26,463.107,190.477,434.67,152.921z M256,480c-106.039,0-192-85.961-192-192S149.961,96,256,96
		s192,85.961,192,192S362.039,480,256,480z"/>
	<circle style="fill:#FFFFFF;" cx="256" cy="288" r="192"/>
	<path style="fill:#6EBF5D;" d="M384,296c-4.422,0-8-3.578-8-8c0-4.421,3.578-8,8-8h31.596
		C411.535,198.025,345.953,132.466,264,128.404V160c0,4.422-3.578,8-8,8s-8-3.578-8-8v-31.596
		C166.047,132.466,100.465,198.025,96.404,280H128c4.422,0,8,3.579,8,8c0,4.422-3.578,8-8,8H96.404
		c4.061,81.975,69.643,147.534,151.596,151.596V416c0-4.421,3.578-8,8-8s8,3.579,8,8v31.596
		c81.953-4.062,147.535-69.621,151.596-151.596H384z"/>
	<path style="fill:#003953;" d="M363.313,180.688c-6.242-6.251-16.383-6.251-22.625,0l-83.438,83.438
		c-0.424-0.022-0.822-0.126-1.25-0.126c-13.25,0-24,10.75-24,24c0,13.266,10.75,24,24,24s24-10.734,24-24
		c0-0.428-0.103-0.826-0.125-1.248l83.438-83.439C369.563,197.063,369.563,186.938,363.313,180.688z"/>
</g>
<g>
</g>
<g>
</g>
<g>
</g>
<g>
</g>
<g>
</g>
<g>
</g>
<g>
</g>
<g>
</g>
<g>
</g>
<g>
</g>
<g>
</g>
<g>
</g>
<g>
</g>
<g>
</g>
<g>
</g>
</svg>
