<?xml version="1.0" encoding="iso-8859-1"?>
<!-- Generator: Adobe Illustrator 19.0.0, SVG Export Plug-In . SVG Version: 6.00 Build 0)  -->
<svg version="1.1" id="Layer_1" xmlns="http://www.w3.org/2000/svg" xmlns:xlink="http://www.w3.org/1999/xlink" x="0px" y="0px"
	 viewBox="0 0 512 512" style="enable-background:new 0 0 512 512;" xml:space="preserve">
<circle style="fill:#FF6262;" cx="256" cy="256" r="256"/>
<path style="fill:#A30F44;" d="M304.297,507.43C422.588,484.843,512,380.871,512,256c0-16.615-1.602-32.852-4.625-48.585
	L405.651,106.584L312.663,223.02l-45.744-45.744l-160.458,131.72L304.297,507.43z"/>
<path style="fill:#386895;" d="M227.556,381.845c-31.368,0-56.889-25.521-56.889-56.889v-46.545c0-5.711,4.632-10.343,10.343-10.343
	h93.091c5.711,0,10.343,4.632,10.343,10.343v46.545C284.444,356.324,258.924,381.845,227.556,381.845z M191.354,288.754v36.202
	c0,19.961,16.241,36.202,36.202,36.202s36.202-16.241,36.202-36.202v-36.202H191.354z"/>
<polygon style="fill:#273B7A;" points="398.222,338.532 113.778,295.865 113.778,167.865 398.222,125.199 "/>
<polygon style="fill:#121149;" points="113.778,228.417 113.778,295.865 398.222,338.532 398.222,228.417 "/>
<g>
	<path style="fill:#386895;" d="M113.778,312.027c-5.711,0-10.343-4.632-10.343-10.343V162.047c0-5.711,4.632-10.343,10.343-10.343
		s10.343,4.632,10.343,10.343v139.636C124.121,307.395,119.489,312.027,113.778,312.027z"/>
	<path style="fill:#386895;" d="M398.222,360.296c-5.711,0-10.343-4.632-10.343-10.343V113.778c0-5.711,4.632-10.343,10.343-10.343
		c5.711,0,10.343,4.632,10.343,10.343v236.175C408.566,355.664,403.934,360.296,398.222,360.296z"/>
</g>
<g>
	<path style="fill:#273B7A;" d="M103.434,228.417v73.266c0,5.711,4.632,10.343,10.343,10.343s10.343-4.632,10.343-10.343v-73.266
		H103.434z"/>
	<path style="fill:#273B7A;" d="M387.879,228.417v121.535c0,5.711,4.632,10.343,10.343,10.343c5.711,0,10.343-4.632,10.343-10.343
		V228.417H387.879z"/>
</g>
<g>
</g>
<g>
</g>
<g>
</g>
<g>
</g>
<g>
</g>
<g>
</g>
<g>
</g>
<g>
</g>
<g>
</g>
<g>
</g>
<g>
</g>
<g>
</g>
<g>
</g>
<g>
</g>
<g>
</g>
</svg>
