<?xml version="1.0" encoding="iso-8859-1"?>
<!-- Generator: Adobe Illustrator 19.0.0, SVG Export Plug-In . SVG Version: 6.00 Build 0)  -->
<svg version="1.1" id="Layer_1" xmlns="http://www.w3.org/2000/svg" xmlns:xlink="http://www.w3.org/1999/xlink" x="0px" y="0px"
	 viewBox="0 0 512 512" style="enable-background:new 0 0 512 512;" xml:space="preserve">
<path style="fill:#707487;" d="M432.188,119.959l-0.135-72.134l16.029-0.03c8.853-0.017,16.042,7.146,16.06,15.999l0.542,288.529
	c0.017,8.853-7.146,16.042-15.999,16.06l-16.029,0.03l-0.317-168.307"/>
<path style="fill:#C7CFE2;" d="M432.053,47.825c-39.227,32.061-98.314,73.875-200.105,79.842l0.163,161.65
	c101.898,5.554,161.179,47.169,200.545,79.096L432.053,47.825z"/>
<path style="fill:#D2555A;" d="M207.791,128.394l-152.28,0.287c-26.559,0.05-48.048,21.621-47.998,48.179l0.06,32.059l0.06,32.059
	c0.05,26.559,21.621,48.047,48.179,47.998l152.28-0.287c8.263-0.016,16.26,0.206,24.018,0.628l-0.163-161.65
	C224.147,128.125,216.104,128.378,207.791,128.394z"/>
<path style="fill:#C7CFE2;" d="M464.305,154.278c23.191,6.852,40.134,28.289,40.181,53.707
	c0.048,25.414-16.809,46.912-39.968,53.854"/>
<g>
	<polygon style="fill:#707487;" points="432.188,87.439 432.114,47.825 432.114,47.825 432.303,148.127 	"/>
	<path style="fill:#707487;" d="M448.685,335.863l-16.029,0.03l0,0c-0.02-0.017-0.041-0.033-0.061-0.049l0.061,32.57l0,0l0,0
		l16.029-0.03c8.853-0.017,16.016-7.207,15.999-16.06l-0.059-31.31C464.02,329.301,457.129,335.847,448.685,335.863z"/>
</g>
<path style="fill:#C7CFE2;" d="M232.112,256.797c-0.011,0-0.022-0.001-0.033-0.001l0.033,32.522
	c101.898,5.554,161.179,47.169,200.545,79.096l-0.061-32.57C393.229,303.923,333.958,262.348,232.112,256.797z"/>
<path style="fill:#D2555A;" d="M208.093,256.168l-152.28,0.287c-26.559,0.05-48.128-21.439-48.179-47.998l-0.06-32.059L7.57,174.44
	c-0.038,0.801-0.058,1.608-0.057,2.419l0.06,32.059l0.06,32.059c0.05,26.559,21.621,48.047,48.179,47.998l152.28-0.287
	c8.263-0.016,16.26,0.206,24.018,0.628l-0.033-32.522C224.329,256.374,216.345,256.153,208.093,256.168z"/>
<path style="fill:#959CB3;" d="M448.083,47.795l-15.968,0.03l0.074,39.614l0.114,60.689l0.353,187.766l0,0l0,0l16.029-0.03
	c8.445-0.016,15.335-6.562,15.94-14.849l-0.484-257.22C464.125,54.942,456.935,47.779,448.083,47.795z"/>
<g>
	<polygon style="fill:#D7DEED;" points="432.188,119.96 432.054,48.517 432.303,180.796 	"/>
	<path style="fill:#D7DEED;" d="M432.303,148.127l-0.188-100.302h-0.061l0.001,0.692l0.134,71.442l0.114,60.838l0.292,155.047
		c0.02,0.017,0.041,0.033,0.061,0.049l-0.317-168.307L432.303,148.127z"/>
	<path style="fill:#D7DEED;" d="M432.303,180.796l-0.248-132.279l-0.001-0.692l0,0l0,0c-39.222,32.058-98.301,73.865-200.072,79.84
		l0.13,129.131c101.846,5.551,161.117,47.126,200.483,79.047l-0.255-135.737L432.303,180.796z"/>
	<polygon style="fill:#D7DEED;" points="432.054,48.517 432.053,47.825 432.053,47.825 	"/>
	<polygon style="fill:#D7DEED;" points="432.339,200.107 432.594,335.843 432.594,335.843 432.303,180.796 	"/>
	<polygon style="fill:#D7DEED;" points="432.054,16.225 432.053,15.305 432.053,15.305 	"/>
	<polygon style="fill:#D7DEED;" points="432.303,148.127 432.339,167.586 432.655,335.893 432.655,335.893 	"/>
</g>
<g>
	<path style="fill:#FF6464;" d="M231.948,127.667l0.13,129.128c0.011,0,0.022,0.001,0.033,0.001l-0.13-129.131
		C231.97,127.666,231.959,127.667,231.948,127.667z"/>
	<path style="fill:#FF6464;" d="M7.634,208.456c0.05,26.559,21.621,48.047,48.179,47.998l152.28-0.287
		c8.251-0.016,16.237,0.206,23.986,0.627l-0.13-129.128c-7.801,0.458-15.844,0.711-24.157,0.727l-152.28,0.287
		C29.764,128.73,8.782,149.003,7.57,174.44l0.004,1.958L7.634,208.456z"/>
</g>
<path style="fill:#D7DEED;" d="M502.089,191.825c-5.444-18.001-19.687-32.175-37.719-37.526l0.148,75.019
	C482.492,223.93,496.664,209.773,502.089,191.825z"/>
<path style="fill:#D2555A;" d="M174.812,286.773l-80.159,0.052l23.072,181.222c1.473,12.082,11.742,21.158,23.913,21.135
	l31.714-0.06c14.414-0.027,25.567-12.645,23.823-26.954L174.812,286.773z"/>
<polygon style="fill:#BE4B50;" points="176.034,288.749 95.886,288.899 100.663,328.084 180.822,328.032 "/>
<path d="M432.25,144.506c-0.005,0-0.01,0-0.015,0c-4.15,0.008-7.508,3.378-7.5,7.529l0.03,16.027
	c0.008,4.145,3.37,7.499,7.514,7.499c0.005,0,0.01,0,0.015,0c4.15-0.008,7.508-3.378,7.5-7.529l-0.03-16.027
	C439.754,147.86,436.392,144.506,432.25,144.506z"/>
<path d="M512,207.97c-0.049-26.032-16.315-49.536-40.185-59.028l-0.16-85.161c-0.012-6.289-2.472-12.197-6.927-16.635
	c-4.445-4.428-10.343-6.865-16.615-6.865c-0.015,0-0.03,0-0.045,0l-16.029,0.03c-0.103,0-0.203,0.012-0.306,0.016
	c-0.136,0.005-0.272,0.008-0.408,0.021c-0.131,0.013-0.259,0.035-0.388,0.055c-0.113,0.017-0.227,0.03-0.34,0.052
	c-0.139,0.027-0.275,0.064-0.413,0.099c-0.1,0.025-0.2,0.048-0.3,0.078c-0.141,0.042-0.279,0.094-0.417,0.144
	c-0.092,0.034-0.185,0.064-0.277,0.102c-0.142,0.059-0.28,0.126-0.418,0.193c-0.082,0.04-0.166,0.076-0.247,0.12
	c-0.15,0.08-0.295,0.169-0.439,0.258c-0.065,0.041-0.132,0.077-0.196,0.12c-0.167,0.111-0.328,0.232-0.486,0.357
	c-0.035,0.028-0.073,0.051-0.107,0.079c-0.008,0.007-0.017,0.014-0.025,0.021c-0.005,0.005-0.011,0.009-0.016,0.014
	c-47.574,38.876-110.858,78.634-219.479,78.838l-152.28,0.286c-14.852,0.028-28.804,5.838-39.286,16.36
	C5.73,148.048-0.028,162.022,0,176.873l0.12,64.117c0.028,14.852,5.838,28.805,16.36,39.287
	c10.496,10.457,24.427,16.212,39.239,16.212c0.035,0,0.072,0,0.107,0l33.407-0.063l21.033,172.53
	c1.929,15.825,15.389,27.739,31.324,27.739c0.021,0,0.042,0,0.062,0l31.714-0.059c9.018-0.018,17.615-3.903,23.587-10.661
	c5.972-6.756,8.771-15.765,7.68-24.716l-20.117-165.013l23.589-0.044c0.286-0.001,0.552-0.001,0.836-0.001
	c108.133,0,171.38,39.441,218.979,78.048c0.008,0.006,0.017,0.011,0.025,0.017c0.308,0.247,0.634,0.464,0.974,0.658
	c0.048,0.027,0.094,0.059,0.143,0.085c0.32,0.174,0.653,0.32,0.995,0.446c0.079,0.029,0.157,0.058,0.237,0.084
	c0.336,0.111,0.677,0.199,1.027,0.262c0.072,0.013,0.144,0.021,0.217,0.033c0.364,0.054,0.731,0.091,1.104,0.091
	c0.002,0,0.004,0,0.006,0c0.001,0,0.001,0,0.002,0s0.002,0,0.002,0c0.006,0,0.01,0,0.015,0l16.029-0.03
	c6.289-0.012,12.196-2.472,16.635-6.927c4.439-4.454,6.877-10.372,6.865-16.66l-0.16-85.16C495.871,257.568,512.049,234,512,207.97z
	 M189.717,463.078c0.58,4.758-0.849,9.356-4.023,12.948c-3.175,3.592-7.562,5.574-12.355,5.583l-31.714,0.059
	c-0.011,0-0.021,0-0.032,0c-8.346-0.001-15.397-6.24-16.407-14.53l-0.301-2.47l35.451-0.066c4.15-0.008,7.508-3.378,7.5-7.528
	c-0.008-4.146-3.37-7.5-7.514-7.5c-0.005,0-0.01,0-0.015,0l-37.254,0.07L104.37,296.398l65.011-0.122L189.717,463.078z
	 M454.688,358.364c-1.606,1.611-3.743,2.502-6.017,2.506l-8.516,0.016l-0.302-160.793c-0.008-4.146-3.37-7.5-7.514-7.5
	c-0.005,0-0.01,0-0.015,0c-4.15,0.008-7.508,3.378-7.5,7.528l0.287,152.775c-43.309-33.135-99.4-64.564-185.474-70.659
	l-0.197-105.813c-0.008-4.146-3.37-7.5-7.514-7.5c-0.005,0-0.01,0-0.015,0c-4.15,0.008-7.508,3.378-7.5,7.528l0.197,104.994
	c-5.117-0.179-10.335-0.272-15.659-0.272c-0.29,0-0.582,0-0.873,0.001l-152.28,0.287c-0.026,0-0.052,0-0.078,0
	c-10.809,0-20.976-4.2-28.635-11.831c-7.678-7.649-11.918-17.831-11.938-28.668l-0.119-64.117
	c-0.021-10.838,4.181-21.036,11.83-28.714s17.831-11.918,28.669-11.938l152.28-0.286c5.627-0.011,11.132-0.127,16.529-0.336
	l0.017,8.82c0.008,4.145,3.37,7.499,7.514,7.499c0.005,0,0.01,0,0.015,0c4.15-0.008,7.508-3.378,7.5-7.529l-0.018-9.639
	c86.046-6.419,142.024-38.056,185.207-71.352l0.106,56.601c0.001,0.311,0.026,0.613,0.063,0.914l0.028,14.654
	c0.008,4.145,3.37,7.499,7.514,7.499c0.005,0,0.01,0,0.015,0c4.15-0.008,7.508-3.378,7.5-7.529l-0.03-16.027
	c-0.001-0.31-0.026-0.613-0.063-0.914l-0.119-63.245l8.516-0.016c0.005,0,0.011,0,0.016,0c2.268,0,4.403,0.882,6.01,2.484
	c1.611,1.605,2.501,3.741,2.505,6.016l0.17,90.36c-0.002,0.118-0.003,0.234,0.001,0.353l0.372,197.818
	C457.175,354.613,456.293,356.753,454.688,358.364z M472.007,250.539l-0.16-84.986c15.146,8.418,25.093,24.657,25.126,42.446
	C497.007,225.786,487.12,242.064,472.007,250.539z"/>
<g>
</g>
<g>
</g>
<g>
</g>
<g>
</g>
<g>
</g>
<g>
</g>
<g>
</g>
<g>
</g>
<g>
</g>
<g>
</g>
<g>
</g>
<g>
</g>
<g>
</g>
<g>
</g>
<g>
</g>
</svg>
