<?xml version="1.0" encoding="iso-8859-1"?>
<!-- Generator: Adobe Illustrator 19.0.0, SVG Export Plug-In . SVG Version: 6.00 Build 0)  -->
<svg version="1.1" id="Capa_1" xmlns="http://www.w3.org/2000/svg" xmlns:xlink="http://www.w3.org/1999/xlink" x="0px" y="0px"
	 viewBox="0 0 469.333 469.333" style="enable-background:new 0 0 469.333 469.333;" xml:space="preserve">
<path style="fill:#303C42;" d="M384,0c-56.646,0-98.625,32.667-135.667,61.5c-29.854,23.229-58.042,45.167-88.333,45.167H42.667
	C13.354,106.667,0,161.958,0,213.333S13.354,320,42.667,320h23.951l33.82,118.385c5.208,18.219,22.083,30.948,41.031,30.948h57.74
	c19.552,0,35.458-15.906,35.458-35.458v-3.75c0-19.552-15.906-35.458-35.458-35.458c-6.094,0-11.49-3.885-13.417-9.667
	l-21.539-64.628c28.682,1.93,55.635,22.661,84.081,44.794c37.042,28.833,79.021,61.5,135.667,61.5
	c55.427,0,85.333-109.917,85.333-213.333S439.427,0,384,0z"/>
<path style="fill:#D32F2F;" d="M21.333,213.333c0-55.99,15.854-85.333,21.333-85.333h101.079
	C133.064,148.79,128,181.775,128,213.333s5.064,64.543,15.746,85.333H42.667C37.188,298.667,21.333,269.323,21.333,213.333z"/>
<path style="opacity:0.1;enable-background:new    ;" d="M128,213.333c0,31.559,5.064,64.543,15.746,85.333H42.667
	c-5.479,0-21.333-29.344-21.333-85.333H128z"/>
<g>
	<path style="fill:#F2F2F2;" d="M199.208,416c7.792,0,14.125,6.333,14.125,14.125v3.75c0,7.792-6.333,14.125-14.125,14.125h-57.74
		c-9.479,0-17.906-6.365-20.51-15.469L88.81,320h52.839l23.914,71.75C170.396,406.25,183.917,416,199.208,416z"/>
	<path style="fill:#F2F2F2;" d="M338.883,29.914c-28.52,10.625-53.309,29.632-77.445,48.419
		c-29.655,23.076-57.871,44.811-90.771,48.828c-5.479,0-21.333,30.182-21.333,86.172s15.645,86.128,21.124,86.128l0.21,0.044
		c32.9,4.017,61.116,25.753,90.771,48.828c24.137,18.788,48.926,37.794,77.445,48.419c-26.329-39.702-40.216-113.026-40.216-183.419
		S312.553,69.616,338.883,29.914z"/>
	<path style="fill:#F2F2F2;" d="M384,405.333c-24.188,0-50.531-50.431-60.164-128.388C357.313,274.917,384,247.311,384,213.333
		s-26.688-61.583-60.164-63.612C333.469,71.764,359.813,21.333,384,21.333c30.271,0,64,78.854,64,192S414.271,405.333,384,405.333z"
		/>
</g>
<path style="fill:#D32F2F;" d="M320,213.333c0-14.799,0.605-28.971,1.676-42.497c22.74,0.901,40.991,19.54,40.991,42.497
	s-18.251,41.596-40.991,42.497C320.605,242.305,320,228.133,320,213.333z"/>
<linearGradient id="SVGID_1_" gradientUnits="userSpaceOnUse" x1="-62.3028" y1="609.7217" x2="-56.5812" y2="604.0001" gradientTransform="matrix(21.3333 0 0 -21.3333 1430.1112 13315.2227)">
	<stop  offset="0" style="stop-color:#000000;stop-opacity:0.1"/>
	<stop  offset="1" style="stop-color:#000000;stop-opacity:0"/>
</linearGradient>
<path style="fill:url(#SVGID_1_);" d="M199.208,416c-15.292,0-28.813-9.75-33.646-24.25L141.648,320H88.81l1.658,5.801
	l118.327,118.327c2.759-2.579,4.539-6.184,4.539-10.253v-3.75C213.333,422.333,207,416,199.208,416z"/>
<path style="opacity:0.1;enable-background:new    ;" d="M330.667,245.333c0-106.039,28.654-192,64-192
	c14.953,0,28.677,15.508,39.572,41.29c-11.72-44.577-29.845-73.29-50.238-73.29c-35.346,0-64,85.961-64,192
	c0,61.178,9.572,115.551,24.43,150.711C335.836,331.359,330.667,290.193,330.667,245.333z"/>
<linearGradient id="SVGID_2_" gradientUnits="userSpaceOnUse" x1="-66.1511" y1="618.4783" x2="-45.3385" y2="608.7735" gradientTransform="matrix(21.3333 0 0 -21.3333 1430.1112 13315.2227)">
	<stop  offset="0" style="stop-color:#FFFFFF;stop-opacity:0.2"/>
	<stop  offset="1" style="stop-color:#FFFFFF;stop-opacity:0"/>
</linearGradient>
<path style="fill:url(#SVGID_2_);" d="M384,0c-56.646,0-98.625,32.667-135.667,61.5c-29.854,23.229-58.042,45.167-88.333,45.167
	H42.667C13.354,106.667,0,161.958,0,213.333S13.354,320,42.667,320h23.951l33.82,118.385c5.208,18.219,22.083,30.948,41.031,30.948
	h57.74c19.552,0,35.458-15.906,35.458-35.458v-3.75c0-19.552-15.906-35.458-35.458-35.458c-6.094,0-11.49-3.885-13.417-9.667
	l-21.539-64.628c28.682,1.93,55.635,22.661,84.081,44.794c37.042,28.833,79.021,61.5,135.667,61.5
	c55.427,0,85.333-109.917,85.333-213.333S439.427,0,384,0z"/>
<g>
</g>
<g>
</g>
<g>
</g>
<g>
</g>
<g>
</g>
<g>
</g>
<g>
</g>
<g>
</g>
<g>
</g>
<g>
</g>
<g>
</g>
<g>
</g>
<g>
</g>
<g>
</g>
<g>
</g>
</svg>
