<?xml version="1.0" encoding="iso-8859-1"?>
<!-- Generator: Adobe Illustrator 16.0.0, SVG Export Plug-In . SVG Version: 6.00 Build 0)  -->
<!DOCTYPE svg PUBLIC "-//W3C//DTD SVG 1.1//EN" "http://www.w3.org/Graphics/SVG/1.1/DTD/svg11.dtd">
<svg version="1.1" id="Capa_1" xmlns="http://www.w3.org/2000/svg" xmlns:xlink="http://www.w3.org/1999/xlink" x="0px" y="0px"
	 width="190.978px" height="190.978px" viewBox="0 0 190.978 190.978" style="enable-background:new 0 0 190.978 190.978;"
	 xml:space="preserve">
<g>
	<g>
		<path d="M61.724,69.85l0.145-4.531c0.044-1.447,1.239-2.591,2.678-2.591h0.09c1.478,0.047,2.638,1.284,2.589,2.764l-0.145,4.545
			c7.508,3.054,14.393,17.869,19.116,30.802c1.476-5.242,2.689-9.839,3.18-13.366c3.097-21.896-2.902-50.02-24.027-50.02
			c-21.119,0-39.405,25.349-39.405,50.02c0,6.982,0.748,11.998,1.851,16.151C35.633,92.887,51.289,72.983,61.724,69.85z"/>
		<path d="M79.122,127.985c1.267-6.232,2.899-12.378,4.505-18.106c-6.051-18.263-14.234-35.12-19.297-35.12
			c-6.696,0-23.528,19.754-34.444,35.098c2.15,5.406,4.695,10.15,6.298,18.125c1.951,9.547-3.203,26.078-3.086,38.69
			c0.117,12.609,3.653,24.307,24.558,24.307c20.906,0,24.594-11.731,24.594-24.322C82.245,154.069,77.2,137.528,79.122,127.985z"/>
		<path d="M129.258,32.405l-0.149-4.539c-0.042-1.448-1.242-2.585-2.676-2.585h-0.093c-1.476,0.047-2.638,1.286-2.587,2.763
			l0.153,4.54c-7.521,3.053-14.403,17.863-19.124,30.802c-1.475-5.24-2.689-9.839-3.18-13.365C98.503,28.129,104.501,0,125.63,0
			c21.114,0,39.402,25.349,39.402,50.02c0,6.981-0.745,11.991-1.848,16.151C155.349,55.439,139.686,35.53,129.258,32.405z"/>
		<path d="M111.856,90.54c-1.27-6.232-2.898-12.383-4.504-18.112c6.047-18.26,14.235-35.114,19.301-35.114
			c6.691,0,23.523,19.746,34.44,35.098c-2.151,5.396-4.693,10.142-6.299,18.124c-1.953,9.538,3.201,26.073,3.086,38.681
			c-0.112,12.608-3.65,24.318-24.559,24.318s-24.585-11.732-24.585-24.329C108.743,116.62,113.782,100.083,111.856,90.54z"/>
	</g>
</g>
<g>
</g>
<g>
</g>
<g>
</g>
<g>
</g>
<g>
</g>
<g>
</g>
<g>
</g>
<g>
</g>
<g>
</g>
<g>
</g>
<g>
</g>
<g>
</g>
<g>
</g>
<g>
</g>
<g>
</g>
</svg>
