<?xml version="1.0" encoding="iso-8859-1"?>
<!-- Generator: Adobe Illustrator 19.0.0, SVG Export Plug-In . SVG Version: 6.00 Build 0)  -->
<svg version="1.1" id="Layer_1" xmlns="http://www.w3.org/2000/svg" xmlns:xlink="http://www.w3.org/1999/xlink" x="0px" y="0px"
	 viewBox="0 0 511.976 511.976" style="enable-background:new 0 0 511.976 511.976;" xml:space="preserve">
<path d="M298.288,214.876h34.592c22.12,0,40.048,17.928,40.048,40.048l0,0c0,22.12-17.928,40.048-40.048,40.048h-34.592
	c-22.12,0-40.048-17.928-40.048-40.048l0,0C258.24,232.804,276.168,214.876,298.288,214.876z"/>
<rect x="283.552" y="85.812" style="fill:#E04F5F;" width="47.824" height="338.24"/>
<polygon style="fill:#CFDCE5;" points="157.6,352.284 283.552,424.028 283.552,85.812 157.6,157.556 "/>
<polygon points="117.864,325.38 117.864,426.164 70.032,426.164 42.704,311.716 "/>
<g>
	<polygon style="fill:#AAC1CE;" points="0,327.948 157.6,352.284 157.6,157.556 0,181.9 	"/>
	<rect x="408" y="247.988" style="fill:#AAC1CE;" width="103.976" height="16"/>
	
		<rect x="409.612" y="151.642" transform="matrix(-0.8987 0.4386 -0.4386 -0.8987 946.4581 100.6455)" style="fill:#AAC1CE;" width="103.986" height="15.992"/>
	
		<rect x="453.628" y="300.373" transform="matrix(-0.4384 0.8988 -0.8988 -0.4384 980.6968 91.94)" style="fill:#AAC1CE;" width="15.992" height="103.986"/>
</g>
<g>
</g>
<g>
</g>
<g>
</g>
<g>
</g>
<g>
</g>
<g>
</g>
<g>
</g>
<g>
</g>
<g>
</g>
<g>
</g>
<g>
</g>
<g>
</g>
<g>
</g>
<g>
</g>
<g>
</g>
</svg>
