<?xml version="1.0" encoding="iso-8859-1"?>
<!-- Generator: Adobe Illustrator 19.0.0, SVG Export Plug-In . SVG Version: 6.00 Build 0)  -->
<svg version="1.1" id="Capa_1" xmlns="http://www.w3.org/2000/svg" xmlns:xlink="http://www.w3.org/1999/xlink" x="0px" y="0px"
	 viewBox="0 0 508 508" style="enable-background:new 0 0 508 508;" xml:space="preserve">
<circle style="fill:#4CDBC4;" cx="254" cy="294.4" r="213.6"/>
<path style="fill:#FFFFFF;" d="M254,133.7c-88.6,0-160.7,72.1-160.7,160.7S165.4,455.1,254,455.1S414.7,383,414.7,294.4
	S342.6,133.7,254,133.7z"/>
<path style="fill:#CDD6E0;" d="M330.5,0h-153c-11.7,0-21.2,9.5-21.2,21.2v16.9c0,11.7,9.5,21.2,21.2,21.2h152.9
	c11.7,0,21.2-9.5,21.2-21.2V21.2C351.6,9.5,342.2,0,330.5,0z"/>
<path style="fill:#ACB3BA;" d="M224.4,59.2V83c9.7-1.4,19.5-2.3,29.6-2.3s19.9,0.9,29.6,2.3V59.2H224.4z"/>
<path style="fill:#FF7058;" d="M227,276.2c-11.2,14.9-8.2,36,6.7,47.3c14.9,11.2,36,8.2,47.3-6.7c11.2-14.9,44.3-114.9,44.3-114.9
	S238.3,261.3,227,276.2z"/>
<circle style="fill:#FFFFFF;" cx="254" cy="296.5" r="18.3"/>
<path style="fill:#F2F2F2;" d="M254,154.9c85,0,154.6,66.4,160.1,150.1c0.2-3.5,0.5-7,0.5-10.6c0-88.6-72.1-160.7-160.7-160.7
	S93.3,205.8,93.3,294.4c0,3.6,0.3,7.1,0.5,10.6C99.4,221.3,169,154.9,254,154.9z"/>
<g>
</g>
<g>
</g>
<g>
</g>
<g>
</g>
<g>
</g>
<g>
</g>
<g>
</g>
<g>
</g>
<g>
</g>
<g>
</g>
<g>
</g>
<g>
</g>
<g>
</g>
<g>
</g>
<g>
</g>
</svg>
