<?xml version="1.0" encoding="iso-8859-1"?>
<!-- Generator: Adobe Illustrator 19.0.0, SVG Export Plug-In . SVG Version: 6.00 Build 0)  -->
<svg version="1.1" id="Layer_1" xmlns="http://www.w3.org/2000/svg" xmlns:xlink="http://www.w3.org/1999/xlink" x="0px" y="0px"
	 viewBox="0 0 512 512" style="enable-background:new 0 0 512 512;" xml:space="preserve">
<rect x="90.951" y="8.17" style="fill:#F63E31;" width="330.098" height="495.66"/>
<g>
	<path style="fill:#C8815C;" d="M458.883,383.088c-1.623,0-3.262-0.482-4.69-1.486c-3.692-2.594-4.583-7.69-1.988-11.382
		c6.49-9.238,9.921-20.111,9.921-31.441s-3.43-22.202-9.921-31.441c-2.594-3.692-1.704-8.788,1.988-11.382
		c3.692-2.594,8.788-1.705,11.382,1.988c8.434,12.004,12.892,26.124,12.892,40.835c0,14.711-4.458,28.831-12.892,40.835
		C463.985,381.878,461.454,383.088,458.883,383.088z"/>
	<path style="fill:#C8815C;" d="M486.32,402.366c-1.623,0-3.262-0.481-4.69-1.486c-3.692-2.594-4.583-7.69-1.988-11.382
		c10.479-14.914,16.017-32.452,16.017-50.718c0-18.268-5.538-35.806-16.018-50.72c-2.594-3.692-1.704-8.788,1.988-11.383
		c3.693-2.594,8.789-1.704,11.383,1.988C505.434,296.345,512,317.132,512,338.78c0,21.647-6.566,42.433-18.988,60.112
		C491.422,401.155,488.891,402.366,486.32,402.366z"/>
	<path style="fill:#C8815C;" d="M53.117,383.088c-2.571,0-5.101-1.21-6.692-3.474c-8.434-12.004-12.892-26.124-12.892-40.835
		c0-14.71,4.458-28.831,12.892-40.835c2.593-3.692,7.69-4.583,11.382-1.988c3.692,2.594,4.583,7.69,1.988,11.382
		c-6.49,9.238-9.921,20.111-9.921,31.441s3.43,22.203,9.921,31.441c2.594,3.692,1.704,8.788-1.988,11.382
		C56.379,382.607,54.74,383.088,53.117,383.088z"/>
	<path style="fill:#C8815C;" d="M25.68,402.366c-2.571,0-5.101-1.21-6.692-3.474C6.566,381.212,0,360.425,0,338.78
		c0-21.648,6.566-42.435,18.989-60.114c2.595-3.692,7.691-4.582,11.383-1.988s4.582,7.691,1.988,11.383
		c-10.481,14.914-16.019,32.453-16.019,50.72s5.538,35.804,16.018,50.718c2.594,3.692,1.704,8.788-1.988,11.382
		C28.941,401.884,27.303,402.366,25.68,402.366z"/>
</g>
<circle style="fill:#E4B780;" cx="256" cy="338.781" r="108.773"/>
<circle style="fill:#AD4A38;" cx="256" cy="338.781" r="76.091"/>
<path style="fill:#C8815C;" d="M256,355.12c-8.858,0-16.34-7.483-16.34-16.34s7.483-16.34,16.34-16.34s16.34,7.483,16.34,16.34
	S264.858,355.12,256,355.12z"/>
<circle style="fill:#E4B780;" cx="256" cy="124.721" r="60.263"/>
<path style="fill:#AD4A38;" d="M256,152.304c-15.211,0-27.587-12.375-27.587-27.587S240.789,97.13,256,97.13
	c15.212,0,27.587,12.375,27.587,27.587S271.212,152.304,256,152.304z"/>
<g>
</g>
<g>
</g>
<g>
</g>
<g>
</g>
<g>
</g>
<g>
</g>
<g>
</g>
<g>
</g>
<g>
</g>
<g>
</g>
<g>
</g>
<g>
</g>
<g>
</g>
<g>
</g>
<g>
</g>
</svg>
