<?xml version="1.0" encoding="iso-8859-1"?>
<!-- Generator: Adobe Illustrator 19.0.0, SVG Export Plug-In . SVG Version: 6.00 Build 0)  -->
<svg version="1.1" id="Capa_1" xmlns="http://www.w3.org/2000/svg" xmlns:xlink="http://www.w3.org/1999/xlink" x="0px" y="0px"
	 viewBox="0 0 511.998 511.998" style="enable-background:new 0 0 511.998 511.998;" xml:space="preserve">
<path style="fill:#61AFF6;" d="M250.273,475.55l-76.07-192.769l-65.636,25.901l73.095,185.23
	c2.93,7.425,10.624,11.818,18.507,10.566l36.934-5.862C247.86,496.909,254.271,485.681,250.273,475.55z"/>
<path style="fill:#55A2F0;" d="M250.273,475.55l-76.07-192.769l-41.409,16.341l80.643,202.717c0.066,0.168,0.122,0.337,0.183,0.506
	l23.484-3.727C247.86,496.909,254.271,485.681,250.273,475.55z"/>
<path style="fill:#FFB125;" d="M154.959,322.181l-90.108,14.301c-19.527,3.099-37.868-10.218-40.967-29.745l-9.888-62.302
	c-3.099-19.527,10.218-37.868,29.745-40.967l90.108-14.301L154.959,322.181z"/>
<path style="fill:#FF901D;" d="M75.121,290.661c-19.527,3.099-37.868-10.218-40.967-29.745L26.3,211.431
	c-9.271,7.817-14.344,20.153-12.304,33.004l9.888,62.302c3.099,19.526,21.441,32.844,40.967,29.745l90.108-14.301l-6.841-43.105
	L75.121,290.661z"/>
<path style="fill:#E1EFFB;" d="M105.255,203.704c4.492,28.304,13.489,84.991,17.981,113.295c1.507,9.495,9.823,16.39,19.432,16.095
	c49.997-1.535,205.458-1.247,334.543,55.588c10.502,4.624,21.948-4.283,20.149-15.617L443.635,34.556
	c-1.799-11.333-15.44-16.259-23.994-8.611c-105.144,94.01-252.877,142.418-300.892,156.438
	C109.52,185.078,103.748,194.209,105.255,203.704z"/>
<path style="fill:#CCDFED;" d="M492.919,345.085c-3.987,3.719-9.986,5.223-15.708,2.703
	c-129.085-56.836-284.546-57.124-334.543-55.588c-9.609,0.295-17.925-6.6-19.432-16.095c-3.364-21.193-9.253-58.299-13.885-87.488
	c-3.348,4.092-4.979,9.521-4.096,15.086c4.492,28.304,13.489,84.991,17.981,113.295c1.507,9.495,9.823,16.39,19.432,16.095
	c49.997-1.535,205.458-1.247,334.543,55.588c10.502,4.624,21.948-4.283,20.149-15.617L492.919,345.085z"/>
<path style="fill:#FF4C4C;" d="M222.6,357.8l-112.162,17.836c-9.124,1.451-17.696-4.769-19.147-13.893L61.005,171.285
	c-1.451-9.124,4.769-17.696,13.893-19.147l112.162-17.835c9.124-1.451,17.696,4.769,19.147,13.893l30.286,190.458
	C237.944,347.777,231.724,356.349,222.6,357.8z"/>
<path style="fill:#F33939;" d="M236.493,338.653l-30.285-190.458c-1.451-9.124-10.023-15.344-19.147-13.893l-27.194,4.324
	l30.208,189.966c1.451,9.124-4.769,17.696-13.893,19.147L91.214,361.25l0.078,0.492c1.451,9.124,10.023,15.344,19.147,13.893
	L222.601,357.8C231.724,356.349,237.944,347.777,236.493,338.653z"/>
<path style="fill:#FFB125;" d="M475.293,408.568L475.293,408.568c14.983-2.383,25.198-16.46,22.815-31.443L442.984,30.461
	c-2.383-14.983-16.46-25.198-31.443-22.815l0,0c-14.983,2.383-25.198,16.46-22.815,31.443l55.125,346.663
	C446.233,400.735,460.31,410.95,475.293,408.568z"/>
<path style="fill:#FF901D;" d="M498.108,377.124L442.984,30.461c-2.383-14.983-16.46-25.198-31.443-22.815
	c-3.188,0.507-6.158,1.548-8.838,3.01c7.219,3.938,12.602,11.056,13.993,19.806l55.124,346.663
	c1.876,11.795-4.058,23.024-13.977,28.433c5.143,2.806,11.217,4.001,17.45,3.01C490.277,406.185,500.491,392.108,498.108,377.124z"
	/>
<g>
	<path style="fill:#E1EFFB;" d="M102.973,223.601l73.635-11.709c3.983-0.633,6.699-4.376,6.065-8.359
		c-0.633-3.983-4.367-6.699-8.359-6.065l-73.635,11.709c-3.983,0.633-6.699,4.376-6.065,8.359c0.571,3.595,3.675,6.157,7.203,6.157
		C102.198,223.692,102.585,223.663,102.973,223.601z"/>
	<path style="fill:#E1EFFB;" d="M183.524,254.912c3.983-0.633,6.699-4.376,6.065-8.359c-0.633-3.983-4.374-6.702-8.359-6.065
		l-73.635,11.709c-3.983,0.633-6.699,4.376-6.065,8.359c0.571,3.595,3.675,6.157,7.203,6.157c0.38,0,0.767-0.029,1.155-0.091
		L183.524,254.912z"/>
	<path style="fill:#E1EFFB;" d="M197.16,293.341c-0.632-3.982-4.371-6.701-8.359-6.065l-73.635,11.709
		c-3.983,0.633-6.699,4.376-6.065,8.359c0.571,3.595,3.675,6.157,7.203,6.157c0.38,0,0.767-0.029,1.155-0.091l73.635-11.709
		C195.077,301.066,197.793,297.324,197.16,293.341z"/>
</g>
<path d="M505.321,375.978l-42.549-267.58c-0.633-3.982-4.374-6.699-8.359-6.065c-3.983,0.633-6.699,4.376-6.065,8.359l42.549,267.58
	c1.747,10.983-5.768,21.338-16.751,23.085c-10.986,1.75-21.338-5.769-23.084-16.751l-1.743-10.959c0-0.001,0-0.001,0-0.002
	l-51.632-324.7c0-0.001,0-0.002,0-0.003l-1.749-10.998c-1.747-10.983,5.768-21.338,16.75-23.085
	c10.98-1.75,21.338,5.767,23.085,16.75l4.421,27.807c0.633,3.983,4.367,6.699,8.359,6.065c3.983-0.633,6.699-4.376,6.065-8.359
	l-4.421-27.807c-3.011-18.937-20.871-31.893-39.802-28.88c-18.936,3.011-31.891,20.867-28.88,39.802l1.064,6.69
	c-47.139,35.717-104.487,67.584-170.637,94.819c-1.671-4.117-4.455-7.698-8.139-10.372c-5.196-3.769-11.548-5.288-17.887-4.283
	L73.752,144.925c-6.339,1.009-11.906,4.425-15.676,9.619c-3.769,5.195-5.29,11.548-4.282,17.887l3.42,21.504l-14.617,2.32
	c-11.37,1.805-21.357,7.929-28.121,17.244c-6.764,9.316-9.496,20.709-7.691,32.08l9.889,62.302
	c3.363,21.194,21.729,36.348,42.543,36.348c2.237,0,4.503-0.175,6.781-0.536l14.661-2.327l3.422,21.523
	c1.879,11.813,12.117,20.259,23.72,20.258c1.248,0,2.515-0.098,3.786-0.3l17.313-2.753l45.971,116.497
	c3.733,9.458,12.673,15.408,22.544,15.407c1.287,0,2.592-0.101,3.901-0.309l36.933-5.862c7.327-1.162,13.638-5.523,17.316-11.965
	c3.678-6.442,4.225-14.094,1.502-20.993l-14.996-38.003c-1.481-3.751-5.724-5.591-9.473-4.112c-3.751,1.48-5.593,5.722-4.112,9.473
	l14.996,38.003c1.089,2.758,0.87,5.816-0.6,8.391s-3.993,4.318-6.922,4.783l-36.934,5.862c-4.537,0.716-8.884-1.762-10.57-6.035
	l-44.783-113.485l56.605-9.001l9.049,22.932c1.48,3.752,5.724,5.592,9.473,4.112c3.752-1.48,5.593-5.722,4.112-9.473l-7.861-19.92
	l8.697-1.383c11.269-1.792,19.466-11.193,20.198-22.126c71.348,5.423,135.754,17.978,191.635,37.358l1.058,6.653
	c2.719,17.095,17.533,29.317,34.321,29.316c1.807,0,3.64-0.142,5.48-0.435C495.376,412.768,508.332,394.913,505.321,375.978z
	 M63.706,329.27c-15.515,2.457-30.147-8.159-32.61-23.677l-9.889-62.302c-1.193-7.517,0.613-15.05,5.085-21.209
	c4.473-6.159,11.075-10.208,18.593-11.401l14.621-2.321l18.856,118.583L63.706,329.27z M198.996,149.342L229.282,339.8
	c0.396,2.486-0.201,4.979-1.679,7.016s-3.663,3.377-6.149,3.773l0,0c-0.003,0,0.003,0,0,0l-112.161,17.835
	c-0.005,0.001,0.005-0.001,0,0l0,0c-5.144,0.82-9.974-2.697-10.79-7.828v0.002c0-0.002,0,0,0-0.002L68.217,170.138
	c0-0.002,0,0.002,0,0l0,0c-0.396-2.486,0.201-4.979,1.679-7.016c1.479-2.038,3.663-3.377,6.149-3.773l112.162-17.835
	c0.499-0.08,0.995-0.118,1.486-0.118C194.243,141.396,198.259,144.709,198.996,149.342 M242.211,328.108l-27.316-171.785
	c65.521-26.765,122.72-58.041,170.275-93.094l47.817,300.708C376.91,345.315,312.823,333.278,242.211,328.108z"/>
<g>
</g>
<g>
</g>
<g>
</g>
<g>
</g>
<g>
</g>
<g>
</g>
<g>
</g>
<g>
</g>
<g>
</g>
<g>
</g>
<g>
</g>
<g>
</g>
<g>
</g>
<g>
</g>
<g>
</g>
</svg>
