<?xml version="1.0" encoding="iso-8859-1"?>
<!-- Generator: Adobe Illustrator 19.0.0, SVG Export Plug-In . SVG Version: 6.00 Build 0)  -->
<svg version="1.1" id="Capa_1" xmlns="http://www.w3.org/2000/svg" xmlns:xlink="http://www.w3.org/1999/xlink" x="0px" y="0px"
	 viewBox="0 0 512 512" style="enable-background:new 0 0 512 512;" xml:space="preserve">
<path style="fill:#61AFF6;" d="M250.104,482.004l-78.305-198.432l-67.564,26.662l75.242,190.671
	c3.016,7.643,10.936,12.165,19.051,10.877l38.019-6.034C247.621,503.991,254.22,492.433,250.104,482.004z"/>
<path style="fill:#55A2F0;" d="M250.104,482.004l-78.305-198.432l-42.625,16.821l83.012,208.672c0.068,0.173,0.126,0.347,0.188,0.52
	l24.173-3.837C247.621,503.991,254.22,492.433,250.104,482.004z"/>
<path style="fill:#FFB125;" d="M151.99,324.129L59.235,338.85c-20.1,3.19-38.981-10.518-42.171-30.618L6.886,244.1
	c-3.19-20.1,10.518-38.981,30.618-42.171l92.755-14.721L151.99,324.129z"/>
<path style="fill:#FF901D;" d="M69.806,291.683c-20.1,3.19-38.981-10.518-42.171-30.618l-8.084-50.938
	c-9.544,8.047-14.765,20.745-12.666,33.973l10.178,64.132c3.19,20.1,22.07,33.808,42.171,30.618l92.755-14.721l-7.042-44.371
	L69.806,291.683z"/>
<path style="fill:#E1EFFB;" d="M100.826,202.172c4.624,29.135,13.885,87.487,18.509,116.623
	c1.551,9.774,10.111,16.871,20.003,16.568c51.465-1.58,211.494-1.284,344.37,57.221c10.811,4.76,22.593-4.409,20.741-16.075
	L449.146,28.056c-1.852-11.666-15.893-16.737-24.699-8.864c-108.233,96.772-260.305,146.601-309.731,161.033
	C105.217,182.999,99.275,192.398,100.826,202.172z"/>
<path style="fill:#CCDFED;" d="M499.878,347.707c-4.104,3.829-10.279,5.377-16.17,2.783
	c-132.877-58.505-292.905-58.802-344.37-57.221c-9.891,0.304-18.452-6.794-20.003-16.568c-3.462-21.816-9.524-60.011-14.293-90.058
	c-3.446,4.212-5.125,9.801-4.216,15.529c4.624,29.136,13.885,87.487,18.509,116.623c1.551,9.774,10.111,16.871,20.003,16.568
	c51.466-1.58,211.494-1.284,344.37,57.221c10.811,4.76,22.593-4.409,20.741-16.075L499.878,347.707z"/>
<path style="fill:#FF4C4C;" d="M221.618,360.795l-115.457,18.359c-9.392,1.493-18.216-4.909-19.71-14.301L55.277,168.801
	c-1.493-9.392,4.909-18.216,14.301-19.71l115.457-18.359c9.392-1.493,18.216,4.909,19.71,14.301l31.175,196.053
	C237.413,350.478,231.01,359.302,221.618,360.795z"/>
<path style="fill:#F33939;" d="M235.92,341.086l-31.175-196.053c-1.493-9.392-10.318-15.795-19.71-14.301l-27.993,4.451
	l31.095,195.546c1.493,9.392-4.91,18.216-14.301,19.71l-87.464,13.908l0.081,0.506c1.493,9.392,10.318,15.795,19.71,14.301
	l115.457-18.359C231.01,359.302,237.413,350.478,235.92,341.086z"/>
<path style="fill:#FFB125;" d="M481.735,413.054L481.735,413.054c15.423-2.453,25.938-16.944,23.486-32.367L448.476,23.84
	c-2.453-15.423-16.944-25.938-32.367-23.485l0,0c-15.423,2.453-25.938,16.944-23.485,32.367l56.744,356.847
	C451.82,404.992,466.311,415.506,481.735,413.054z"/>
<path style="fill:#FF901D;" d="M505.22,380.687L448.476,23.84c-2.453-15.423-16.944-25.938-32.367-23.485
	c-3.282,0.522-6.338,1.593-9.098,3.098c7.431,4.054,12.972,11.381,14.404,20.387l56.744,356.847
	c1.931,12.141-4.177,23.701-14.387,29.269c5.294,2.888,11.546,4.118,17.963,3.098C497.158,410.601,507.673,396.11,505.22,380.687z"
	/>
<g>
	<path style="fill:#E1EFFB;" d="M98.477,222.654l75.798-12.053c4.1-0.652,6.895-4.504,6.243-8.604
		c-0.652-4.1-4.495-6.895-8.604-6.243l-75.798,12.053c-4.1,0.652-6.895,4.504-6.243,8.604c0.588,3.701,3.783,6.337,7.415,6.337
		C97.68,222.748,98.078,222.717,98.477,222.654z"/>
	<path style="fill:#E1EFFB;" d="M181.394,254.884c4.1-0.652,6.895-4.504,6.243-8.604c-0.652-4.1-4.502-6.899-8.604-6.243
		l-75.798,12.053c-4.1,0.652-6.895,4.504-6.243,8.604c0.588,3.701,3.783,6.337,7.415,6.337c0.392,0,0.79-0.03,1.189-0.094
		L181.394,254.884z"/>
	<path style="fill:#E1EFFB;" d="M195.431,294.442c-0.651-4.099-4.499-6.898-8.604-6.243l-75.798,12.053
		c-4.1,0.652-6.895,4.504-6.243,8.604c0.588,3.701,3.783,6.337,7.415,6.337c0.392,0,0.79-0.03,1.189-0.094l75.798-12.053
		C193.287,302.395,196.082,298.542,195.431,294.442z"/>
</g>
<g>
</g>
<g>
</g>
<g>
</g>
<g>
</g>
<g>
</g>
<g>
</g>
<g>
</g>
<g>
</g>
<g>
</g>
<g>
</g>
<g>
</g>
<g>
</g>
<g>
</g>
<g>
</g>
<g>
</g>
</svg>
