<?xml version="1.0" encoding="iso-8859-1"?>
<!-- Generator: Adobe Illustrator 19.0.0, SVG Export Plug-In . SVG Version: 6.00 Build 0)  -->
<svg version="1.1" id="Capa_1" xmlns="http://www.w3.org/2000/svg" xmlns:xlink="http://www.w3.org/1999/xlink" x="0px" y="0px"
	 viewBox="0 0 512 512" style="enable-background:new 0 0 512 512;" xml:space="preserve">
<circle style="fill:#35CCFF;" cx="256" cy="256" r="256"/>
<path style="fill:#00BAFF;" d="M79.54,293.133l215.85,215.851C418.073,490.036,512,383.989,512,256
	c0-6.284-0.237-12.512-0.682-18.682L386,112L79.54,293.133z"/>
<path style="fill:#333333;" d="M233.69,432L233.69,432c-16.255,0-30.404-11.108-34.262-26.898L170,284.667h72.616l25.336,103.691
	C273.38,410.573,256.558,432,233.69,432z"/>
<polygon style="fill:#FFFFFF;" points="155.667,300.655 370,350.655 370,121.345 155.667,171.345 "/>
<polygon style="fill:#E6E6E6;" points="155.667,235.667 155.667,300.655 370,350.655 370,235.667 "/>
<rect x="335" y="112" style="fill:#F1333F;" width="51" height="248"/>
<rect x="335" y="235.67" style="fill:#AE283F;" width="51" height="124.33"/>
<path style="fill:#F1333F;" d="M97.762,300.557h57.905V171.345H97.762c-14.412,0-26.095,11.683-26.095,26.095v77.02
	C71.667,288.873,83.35,300.557,97.762,300.557z"/>
<path style="fill:#AE283F;" d="M71.667,235.667v38.795c0,14.412,11.683,26.095,26.095,26.095h57.905v-64.89H71.667z"/>
<g>
</g>
<g>
</g>
<g>
</g>
<g>
</g>
<g>
</g>
<g>
</g>
<g>
</g>
<g>
</g>
<g>
</g>
<g>
</g>
<g>
</g>
<g>
</g>
<g>
</g>
<g>
</g>
<g>
</g>
</svg>
