<?xml version="1.0" encoding="iso-8859-1"?>
<!-- Generator: Adobe Illustrator 19.0.0, SVG Export Plug-In . SVG Version: 6.00 Build 0)  -->
<svg version="1.1" id="Layer_1" xmlns="http://www.w3.org/2000/svg" xmlns:xlink="http://www.w3.org/1999/xlink" x="0px" y="0px"
	 viewBox="0 0 512 512" style="enable-background:new 0 0 512 512;" xml:space="preserve">
<g>
	<polygon style="fill:#EE3840;" points="235.456,430.815 235.456,296.051 150.68,296.051 150.68,480.802 264.961,480.802 
		264.961,441.662 	"/>
	<path style="fill:#EE3840;" d="M10.52,157.78C3.733,174.916,0,193.581,0,213.102s3.733,38.186,10.52,55.321h48.215l0.002-110.644
		L10.52,157.78L10.52,157.78z"/>
</g>
<path style="fill:#ADA7A4;" d="M232.598,105.813H150.68c-59.255,0-107.289,48.035-107.289,107.289S91.426,320.392,150.68,320.392
	h81.938L232.598,105.813z"/>
<path style="fill:#E6E2E0;" d="M425.195,391.49V34.717l-189.74,71.096h-2.857c-8.773,30.072-13.957,67.145-13.957,107.258
	c0,40.142,5.19,77.238,13.976,107.322h2.839L425.195,391.49z"/>
<path style="fill:#7A7674;" d="M439.463,31.198c-33.365,0-61.464,56.485-69.927,133.393l41.092,48.479l-41.092,48.479
	c8.463,76.908,36.562,133.393,69.927,133.393c40.061,0,72.537-81.427,72.537-181.872S479.524,31.198,439.463,31.198z"/>
<g>
	<path style="fill:#C21B23;" d="M234.292,410.993h-10.969c-6.701,0-12.133-5.433-12.133-12.133c0-6.7,5.432-12.133,12.133-12.133
		h10.969c6.701,0,12.133,5.433,12.133,12.133C246.425,405.56,240.993,410.993,234.292,410.993z"/>
	<path style="fill:#C21B23;" d="M234.292,374.186h-10.969c-6.701,0-12.133-5.433-12.133-12.133c0-6.7,5.432-12.133,12.133-12.133
		h10.969c6.701,0,12.133,5.433,12.133,12.133C246.425,368.753,240.993,374.186,234.292,374.186z"/>
</g>
<path style="fill:#181818;" d="M410.628,164.592h-41.092c-1.699,15.435-2.61,31.689-2.61,48.479s0.911,33.043,2.61,48.479h41.092
	c26.774,0,48.479-21.704,48.479-48.479C459.108,186.296,437.402,164.592,410.628,164.592z"/>
<g>
</g>
<g>
</g>
<g>
</g>
<g>
</g>
<g>
</g>
<g>
</g>
<g>
</g>
<g>
</g>
<g>
</g>
<g>
</g>
<g>
</g>
<g>
</g>
<g>
</g>
<g>
</g>
<g>
</g>
</svg>
