<?xml version="1.0" encoding="iso-8859-1"?>
<!-- Generator: Adobe Illustrator 19.0.0, SVG Export Plug-In . SVG Version: 6.00 Build 0)  -->
<svg version="1.1" id="Capa_1" xmlns="http://www.w3.org/2000/svg" xmlns:xlink="http://www.w3.org/1999/xlink" x="0px" y="0px"
	 viewBox="0 0 496 496" style="enable-background:new 0 0 496 496;" xml:space="preserve">
<g>
	<path style="fill:#FFA64D;" d="M56,280h96V168H56c-8.84,0-16,7.16-16,16v80C40,272.84,47.16,280,56,280z"/>
	<rect x="304" y="104" style="fill:#FFA64D;" width="40" height="240"/>
</g>
<g>
	<rect x="96" y="224" style="fill:#333333;" width="16" height="32"/>
	<rect x="96" y="192" style="fill:#333333;" width="16" height="16"/>
	<rect x="64" y="224" style="fill:#333333;" width="16" height="32"/>
	<rect x="64" y="192" style="fill:#333333;" width="16" height="16"/>
	<path style="fill:#333333;" d="M288,104.984V40c0-22.056-17.944-40-40-40H40C17.944,0,0,17.944,0,40v416c0,22.056,17.944,40,40,40
		h208c22.056,0,40-17.944,40-40V343.016L310.464,352H352V96h-41.536L288,104.984z M40,16h208c13.232,0,24,10.768,24,24v8H16v-8
		C16,26.768,26.768,16,40,16z M248,480H40c-13.232,0-24-10.768-24-24v-24h256v24C272,469.232,261.232,480,248,480z M272,416H16V64
		h256v47.384L150.456,160H56c-13.232,0-24,10.768-24,24v80c0,13.232,10.768,24,24,24h8v40c0,13.232,10.768,24,24,24h36.688
		c10.648,0,19.312-8.664,19.312-19.312c0-5.16-2.008-10.008-5.656-13.656L128,308.688V288h22.456L272,336.616V416z M127.032,330.344
		c0.616,0.616,0.968,1.472,0.968,2.344c0,1.824-1.488,3.312-3.312,3.312H88c-4.408,0-8-3.592-8-8v-40h32v27.312L127.032,330.344z
		 M56,272c-4.408,0-8-3.592-8-8v-80c0-4.408,3.592-8,8-8h88v96H56z M336,112v224h-16v-24h-16v20.184l-144-57.6V173.416l144-57.6V296
		h16V112H336z"/>
	<rect x="104" y="448" style="fill:#333333;" width="80" height="16"/>
	<rect x="368" y="216" style="fill:#333333;" width="96" height="16"/>
	<rect x="480" y="216" style="fill:#333333;" width="16" height="16"/>
	
		<rect x="370.163" y="120" transform="matrix(-0.8661 0.4999 -0.4999 -0.8661 844.3162 29.8227)" style="fill:#333333;" width="96.001" height="16"/>
	
		<rect x="472.494" y="84.019" transform="matrix(-0.8661 0.4999 -0.4999 -0.8661 942.6443 -68.4805)" style="fill:#333333;" width="16" height="16"/>
	
		<rect x="409.576" y="271.991" transform="matrix(-0.5 0.866 -0.866 -0.5 903.4864 118.3603)" style="fill:#333333;" width="16" height="95.998"/>
	
		<rect x="471.904" y="348.021" transform="matrix(-0.5 0.866 -0.866 -0.5 1028.1825 118.4298)" style="fill:#333333;" width="16" height="16"/>
</g>
<g>
</g>
<g>
</g>
<g>
</g>
<g>
</g>
<g>
</g>
<g>
</g>
<g>
</g>
<g>
</g>
<g>
</g>
<g>
</g>
<g>
</g>
<g>
</g>
<g>
</g>
<g>
</g>
<g>
</g>
</svg>
