<?xml version="1.0" encoding="iso-8859-1"?>
<!-- Generator: Adobe Illustrator 19.0.0, SVG Export Plug-In . SVG Version: 6.00 Build 0)  -->
<svg version="1.1" id="Capa_1" xmlns="http://www.w3.org/2000/svg" xmlns:xlink="http://www.w3.org/1999/xlink" x="0px" y="0px"
	 viewBox="0 0 512 512" style="enable-background:new 0 0 512 512;" xml:space="preserve">
<path style="fill:#40596B;" d="M408,512H102.933C91.2,512,81.6,502.4,81.6,490.667V21.333C81.6,9.6,91.2,0,102.933,0h306.133
	C420.8,0,430.4,9.6,430.4,21.333v469.333C429.333,502.4,419.733,512,408,512z"/>
<rect x="117.87" y="54.4" style="fill:#FFFFFF;" width="276.27" height="366.93"/>
<g>
	<path style="fill:#334A5E;" d="M285.333,35.2H225.6c-4.267,0-7.467-3.2-7.467-7.467l0,0c0-4.267,3.2-7.467,7.467-7.467h59.733
		c4.267,0,7.467,3.2,7.467,7.467l0,0C292.8,32,289.6,35.2,285.333,35.2z"/>
	<circle style="fill:#334A5E;" cx="255.47" cy="466.13" r="30.933"/>
</g>
<path style="fill:#84DBFF;" d="M121.067,421.333c74.667,0,149.333,0,224,0C532.8,320,46.4,219.733,234.133,118.4l0,0
	C-28.267,219.733,383.467,320,121.067,421.333z"/>
<path style="fill:#FF7058;" d="M377.067,267.733c0,33.067-58.667,98.133-58.667,98.133s-58.667-66.133-58.667-98.133
	s26.667-58.667,58.667-58.667S377.067,234.667,377.067,267.733z"/>
<circle style="fill:#FFFFFF;" cx="318.4" cy="267.73" r="33.07"/>
<path style="fill:#FF7058;" d="M200,115.2c0,18.133-32,53.333-32,53.333s-32-36.267-32-53.333s14.933-32,32-32S200,97.067,200,115.2
	z"/>
<circle style="fill:#FFFFFF;" cx="168" cy="115.2" r="18.13"/>
<g>
</g>
<g>
</g>
<g>
</g>
<g>
</g>
<g>
</g>
<g>
</g>
<g>
</g>
<g>
</g>
<g>
</g>
<g>
</g>
<g>
</g>
<g>
</g>
<g>
</g>
<g>
</g>
<g>
</g>
</svg>
