<?xml version="1.0" encoding="iso-8859-1"?>
<!-- Generator: Adobe Illustrator 19.0.0, SVG Export Plug-In . SVG Version: 6.00 Build 0)  -->
<svg version="1.1" id="Capa_1" xmlns="http://www.w3.org/2000/svg" xmlns:xlink="http://www.w3.org/1999/xlink" x="0px" y="0px"
	 viewBox="0 0 512 512" style="enable-background:new 0 0 512 512;" xml:space="preserve">
<path style="fill:#40596B;" d="M413.867,512H98.133C86.4,512,76.8,502.4,76.8,490.667V21.333C76.8,9.6,86.4,0,98.133,0h315.733
	C425.6,0,435.2,9.6,435.2,21.333v469.333C435.2,502.4,425.6,512,413.867,512z"/>
<rect x="123.73" y="56.53" style="fill:#54C0EB;" width="264.53" height="369.07"/>
<g>
	<path style="fill:#334A5E;" d="M208,24.533L208,24.533c0-4.267,3.2-7.467,7.467-7.467H288c4.267,0,7.467,3.2,7.467,7.467l0,0
		c0,4.267-3.2,7.467-7.467,7.467h-72.533C211.2,32,208,28.8,208,24.533z"/>
	<circle style="fill:#334A5E;" cx="252.8" cy="465.07" r="27.733"/>
</g>
<path style="fill:#FFFFFF;" d="M340.267,241.067c0-3.2,0-5.333,0-7.467c5.333-4.267,11.733-7.467,17.067-11.733
	c-2.133-8.533-4.267-16-7.467-23.467c-7.467,0-13.867,1.067-21.333,1.067c-3.2-4.267-5.333-8.533-9.6-12.8
	c2.133-6.4,5.333-12.8,7.467-19.2c-6.4-5.333-12.8-10.667-20.267-14.933c-5.333,4.267-10.667,8.533-16,12.8
	c-5.333-2.133-9.6-4.267-14.933-5.333c-2.133-6.4-4.267-13.867-5.333-20.267c-8.533-1.067-17.067-1.067-25.6,0
	c-2.133,6.4-4.267,13.867-5.333,20.267c-5.333,1.067-10.667,3.2-14.933,5.333c-5.333-4.267-10.667-8.533-16-12.8
	c-7.467,4.267-13.867,9.6-20.267,14.933c2.133,6.4,5.333,12.8,7.467,19.2c-3.2,4.267-6.4,8.533-9.6,12.8
	c-6.4,0-13.867-1.067-21.333-1.067c-3.2,7.467-5.333,16-7.467,23.467c5.333,4.267,11.733,7.467,17.067,11.733
	c0,2.133,0,5.333,0,7.467c0,2.133,0,5.333,0,7.467c-5.333,4.267-11.733,7.467-17.067,11.733c2.133,8.533,4.267,16,7.467,23.467
	c7.467,0,13.867-1.067,21.333-1.067c3.2,4.267,5.333,8.533,9.6,12.8c-2.133,6.4-5.333,12.8-7.467,19.2
	c6.4,5.333,12.8,10.667,20.267,14.933c5.333-4.267,10.667-8.533,16-12.8c4.267,2.133,9.6,3.2,14.933,5.333
	c2.133,6.4,4.267,13.867,5.333,20.267c8.533,1.067,17.067,1.067,25.6,0c2.133-6.4,4.267-13.867,5.333-20.267
	c5.333-1.067,10.667-3.2,14.933-5.333c5.333,4.267,10.667,8.533,16,12.8C313.6,325.333,320,320,326.4,314.667
	c-2.133-6.4-5.333-12.8-7.467-19.2c3.2-4.267,6.4-8.533,9.6-12.8c6.4,0,13.867,1.067,21.333,1.067c3.2-7.467,5.333-16,7.467-23.467
	C352,256,345.6,252.8,340.267,248.533C339.2,246.4,340.267,244.267,340.267,241.067z M256,284.8
	c-24.533,0-43.733-19.2-43.733-43.733s19.2-43.733,43.733-43.733s43.733,19.2,43.733,43.733S280.533,284.8,256,284.8z"/>
<path style="fill:#F2F2F2;" d="M299.733,198.4c-23.467-23.467-62.933-23.467-86.4,0c-23.467,23.467-23.467,62.933,0,86.4
	c11.733,11.733,27.733,18.133,42.667,18.133c16,0,30.933-6.4,43.733-18.133C323.2,260.267,323.2,221.867,299.733,198.4z
	 M283.733,268.8c-14.933,14.933-39.467,14.933-54.4,0c-14.933-14.933-14.933-39.467,0-55.467c14.933-14.933,39.467-14.933,55.467,0
	c7.467,7.467,11.733,17.067,11.733,27.733C296.533,251.733,291.2,261.333,283.733,268.8z"/>
<g>
</g>
<g>
</g>
<g>
</g>
<g>
</g>
<g>
</g>
<g>
</g>
<g>
</g>
<g>
</g>
<g>
</g>
<g>
</g>
<g>
</g>
<g>
</g>
<g>
</g>
<g>
</g>
<g>
</g>
</svg>
