<?xml version="1.0" encoding="iso-8859-1"?>
<!-- Generator: Adobe Illustrator 19.0.0, SVG Export Plug-In . SVG Version: 6.00 Build 0)  -->
<svg version="1.1" id="Capa_1" xmlns="http://www.w3.org/2000/svg" xmlns:xlink="http://www.w3.org/1999/xlink" x="0px" y="0px"
	 viewBox="0 0 507.9 507.9" style="enable-background:new 0 0 507.9 507.9;" xml:space="preserve">
<path style="fill:#40596B;" d="M251.9,334.2c0-49.1,38.3-89.2,86.7-92.3V21.1c0-11.7-9.5-21.1-21.1-21.1h-295
	C10.7,0,1.2,9.5,1.2,21.1v465.7c0,11.7,9.5,21.1,21.1,21.1h295c11.7,0,21.1-9.5,21.1-21.1v-60.4
	C290.2,423.4,251.9,383.3,251.9,334.2z"/>
<rect x="46.4" y="56.2" style="fill:#FFFFFF;" width="247" height="346.2"/>
<g>
	<path style="fill:#334A5E;" d="M212.8,35.6h-86c-0.4,0-0.7-0.3-0.7-0.7V21.3c0-0.4,0.3-0.7,0.7-0.7h86c0.4,0,0.7,0.3,0.7,0.7V35
		C213.6,35.3,213.2,35.6,212.8,35.6z"/>
	<circle style="fill:#334A5E;" cx="169.9" cy="455.2" r="28.4"/>
</g>
<path style="fill:#CDD6E0;" d="M479.9,348.3c0.5-4.6,0.4-24.1-0.1-29l26.9-18.8l-11.5-35.1l-32.8,0.8c-4.8-8.4-10.6-16.1-17-23.3
	l10.8-31.1L426,190.1L399.9,210c-8.7-3.9-17.9-7-27.5-9l-9.5-31.3h-37l-9.5,31.3c-9.9,2.1-19.3,5.3-28.3,9.4l-26.3-19.7L232,212.6
	l11,31c-6.4,7.2-12.1,15-16.9,23.4l-32.8-0.6L182,301.6l26.9,18.6c-0.5,4.6-0.4,24.1,0.1,29L182.1,368l11.5,35.1l32.8-0.8
	c4.8,8.4,10.6,16.1,17,23.3l-10.8,31.1l29.9,21.7l26.1-19.9c8.7,3.9,17.9,7,27.5,9l9.5,31.3h37l9.5-31.3c9.9-2.1,19.3-5.3,28.3-9.4
	l26.3,19.7l29.8-21.9l-11-31c6.4-7.2,12.1-15,16.9-23.4l32.8,0.6l11.3-35.2L479.9,348.3z M344.4,385.5c-28.3,0-51.3-23-51.3-51.3
	s23-51.3,51.3-51.3s51.3,23,51.3,51.3C395.7,362.5,372.7,385.5,344.4,385.5z"/>
<path style="fill:#ACB3BA;" d="M344.4,241.6c-51.1,0-92.6,41.4-92.6,92.6c0,51.1,41.4,92.6,92.6,92.6s92.6-41.4,92.6-92.6
	C437,283.1,395.6,241.6,344.4,241.6z M344.4,385.5c-28.3,0-51.3-23-51.3-51.3s23-51.3,51.3-51.3s51.3,23,51.3,51.3
	C395.7,362.5,372.7,385.5,344.4,385.5z"/>
<g>
</g>
<g>
</g>
<g>
</g>
<g>
</g>
<g>
</g>
<g>
</g>
<g>
</g>
<g>
</g>
<g>
</g>
<g>
</g>
<g>
</g>
<g>
</g>
<g>
</g>
<g>
</g>
<g>
</g>
</svg>
