<?xml version="1.0" encoding="iso-8859-1"?>
<!-- Generator: Adobe Illustrator 19.0.0, SVG Export Plug-In . SVG Version: 6.00 Build 0)  -->
<svg version="1.1" id="Capa_1" xmlns="http://www.w3.org/2000/svg" xmlns:xlink="http://www.w3.org/1999/xlink" x="0px" y="0px"
	 viewBox="0 0 512 512" style="enable-background:new 0 0 512 512;" xml:space="preserve">
<g>
	<g>
		<path d="M253.115,268.731c-1.831-1.831-4.362-2.885-6.961-2.885c-2.59,0-5.13,1.053-6.961,2.885
			c-1.831,1.831-2.885,4.362-2.885,6.961c0,2.59,1.054,5.13,2.885,6.96c1.831,1.831,4.372,2.886,6.961,2.886s5.13-1.054,6.961-2.886
			c1.831-1.83,2.885-4.371,2.885-6.96S254.946,270.563,253.115,268.731z"/>
	</g>
</g>
<g>
	<g>
		<path d="M280.206,203.493c-8.457-4.36-16.602-6.57-24.206-6.57c-7.605,0-15.749,2.21-24.205,6.571
			c-4.833,2.491-6.731,8.43-4.239,13.264c2.493,4.833,8.43,6.731,13.264,4.238c5.639-2.907,10.745-4.381,15.18-4.381
			s9.543,1.474,15.183,4.383c1.443,0.743,2.985,1.096,4.504,1.096c3.568,0,7.012-1.947,8.759-5.337
			C286.938,211.925,285.039,205.986,280.206,203.493z"/>
	</g>
</g>
<g>
	<g>
		<path d="M413.538,324.923h-88.615v-39.928c44.246-4.914,78.769-42.537,78.769-88.072V60.062C403.692,26.943,376.749,0,343.631,0
			H168.369c-33.118,0-60.062,26.943-60.062,60.062v136.862c0,45.534,34.524,83.158,78.769,88.072v39.928H98.462
			C44.17,324.923,0,369.092,0,423.385v78.769C0,507.591,4.408,512,9.846,512h492.308c5.438,0,9.846-4.409,9.846-9.846v-78.769
			C512,369.092,467.83,324.923,413.538,324.923z M128,60.062c0-22.259,18.11-40.369,40.369-40.369h175.262
			c22.259,0,40.369,18.11,40.369,40.369v18.151c-21.758,13.089-49.5,20.249-78.769,20.249c-28.989,0-56.916-7.162-78.634-20.166
			c-0.002-0.001-0.004-0.002-0.006-0.003c-11.803-7.069-21.241-15.464-28.055-24.954c-3.171-4.417-9.323-5.426-13.74-2.256
			c-4.417,3.171-5.427,9.323-2.256,13.74c5.406,7.529,12.074,14.444,19.906,20.676c-19.133,8.41-41.524,12.962-64.6,12.962
			c-3.282,0-6.571-0.093-9.846-0.275V60.062z M19.692,492.308v-68.923c0-43.433,35.336-78.769,78.769-78.769h10.936l6.95,59.077
			H78.769c-5.438,0-9.846,4.409-9.846,9.846c0,5.437,4.408,9.846,9.846,9.846h39.896l8.108,68.923H19.692z M146.71,492.308
			l-15.546-147.692h57.003l17.376,147.692H146.71z M196.923,265.846c-38.004,0-68.923-30.919-68.923-68.923V117.9
			c3.278,0.164,6.566,0.254,9.846,0.254c30.324,0,59.794-7.099,83.692-20.079c23.899,12.98,53.368,20.079,83.692,20.079
			c28.473,0,55.823-6.149,78.769-17.523v96.292c0,38.004-30.919,68.923-68.923,68.923h-39.385c-5.438,0-9.846,4.409-9.846,9.846
			c0,5.437,4.408,9.846,9.846,9.846h29.538v46.55l-1.293,2.198c-5.762,8.947-22.079,30.022-47.938,30.022
			c-28.194,0-45.048-25.054-49.231-32.102v-56.513C206.769,270.255,202.361,265.846,196.923,265.846z M210.611,366.853
			C221.603,376.056,236.68,384,256,384c7.5,0,14.352-1.209,20.583-3.211l-13.472,22.903h-48.165L210.611,366.853z M274.753,492.07
			c-0.001,0-0.002,0-0.003,0c-1.396,0.16-2.698,0.237-3.981,0.237h-45.398l-8.108-68.923h51.48h2.026
			c0.775,0,1.544,0.035,2.308,0.086c0.207,0.014,0.413,0.03,0.618,0.047c0.665,0.056,1.326,0.129,1.981,0.223
			c0.107,0.016,0.217,0.025,0.323,0.041c0.698,0.106,1.387,0.242,2.074,0.39c0.281,0.061,0.56,0.126,0.839,0.194
			c0.438,0.105,0.871,0.224,1.303,0.347c0.541,0.155,1.076,0.322,1.606,0.502c0.302,0.101,0.605,0.203,0.903,0.312
			c0.44,0.163,0.875,0.336,1.308,0.516c0.122,0.051,0.242,0.104,0.364,0.157c6.918,2.99,12.664,8.185,16.358,14.693
			c0.163,0.289,0.327,0.579,0.482,0.874c0.162,0.306,0.321,0.613,0.475,0.925c0.291,0.596,0.573,1.199,0.833,1.817
			c1.729,4.106,2.687,8.612,2.687,13.339C305.231,475.5,291.885,490.088,274.753,492.07z M284.869,405.542l35.522-60.387
			c0.115-0.179,0.237-0.366,0.348-0.54h36.2l-45.531,77.402C304.398,414.047,295.175,408.302,284.869,405.542z M492.308,452.923
			h-59.077c-5.438,0-9.846,4.409-9.846,9.846s4.408,9.846,9.846,9.846h59.077v19.692H312.512
			c7.749-9.37,12.411-21.381,12.411-34.462c0-5.534-0.838-10.874-2.388-15.906l57.249-97.324h33.754
			c43.433,0,78.769,35.336,78.769,78.769V452.923z"/>
	</g>
</g>
<g>
	<g>
		<path d="M410.654,455.808c-1.831-1.831-4.372-2.885-6.961-2.885s-5.13,1.053-6.961,2.885c-1.831,1.831-2.885,4.372-2.885,6.961
			s1.054,5.13,2.885,6.96c1.831,1.831,4.372,2.886,6.961,2.886s5.13-1.054,6.961-2.886c1.831-1.83,2.885-4.371,2.885-6.96
			S412.485,457.639,410.654,455.808z"/>
	</g>
</g>
<g>
</g>
<g>
</g>
<g>
</g>
<g>
</g>
<g>
</g>
<g>
</g>
<g>
</g>
<g>
</g>
<g>
</g>
<g>
</g>
<g>
</g>
<g>
</g>
<g>
</g>
<g>
</g>
<g>
</g>
</svg>
