<?xml version="1.0" encoding="iso-8859-1"?>
<!-- Generator: Adobe Illustrator 19.0.0, SVG Export Plug-In . SVG Version: 6.00 Build 0)  -->
<svg version="1.1" id="Capa_1" xmlns="http://www.w3.org/2000/svg" xmlns:xlink="http://www.w3.org/1999/xlink" x="0px" y="0px"
	 viewBox="0 0 512 512" style="enable-background:new 0 0 512 512;" xml:space="preserve">
<g>
	<path style="fill:#FF9E80;" d="M98.462,334.769c-48.941,0-88.615,39.674-88.615,88.615v78.769h128l-17.62-167.385H98.462z"/>
	<path style="fill:#FF9E80;" d="M413.538,334.769h-98.462v-59.077c43.503,0,78.769-35.266,78.769-78.769V60.062
		c0-27.734-22.482-50.215-50.215-50.215H168.369c-27.734,0-50.215,22.482-50.215,50.215v136.862
		c0,43.503,35.266,78.769,78.769,78.769v59.077l19.692,167.385h285.538v-78.769C502.154,374.443,462.48,334.769,413.538,334.769z"/>
</g>
<path style="fill:#9F85D6;" d="M413.538,334.769h-98.462c0,0-19.692,39.385-59.077,39.385s-59.077-39.385-59.077-39.385h-76.697
	h-2.073H98.462c-48.941,0-88.615,39.674-88.615,88.615v78.769h128h78.769h285.538v-78.769
	C502.154,374.443,462.48,334.769,413.538,334.769z"/>
<path style="fill:#FF9E80;" d="M270.769,502.154c24.471,0,44.308-19.837,44.308-44.308l0,0c0-24.471-19.837-44.308-44.308-44.308
	h-63.482l9.328,88.615H270.769z"/>
<g>
	<polygon style="fill:#FFB74D;" points="216.615,502.154 137.846,502.154 118.154,334.769 196.923,334.769 	"/>
	<path style="fill:#FFB74D;" d="M270.769,502.154h4.923l0.177-0.301C274.195,502.045,272.495,502.154,270.769,502.154z"/>
	<path style="fill:#FFB74D;" d="M270.769,413.538c18.471,0,34.296,11.305,40.948,27.372l62.436-106.142h-59.077l-46.335,78.769
		H270.769z"/>
</g>
<path style="fill:#616161;" d="M343.631,9.846h-78.575h-87.034h-9.652c-27.734,0-50.215,22.482-50.215,50.215v47.202
	c6.42,0.686,12.995,1.044,19.692,1.044c31.998,0,61.252-8.129,83.692-21.566c22.44,13.437,51.694,21.566,83.692,21.566
	c34.394,0,65.617-9.393,88.615-24.674V60.062C393.846,32.328,371.364,9.846,343.631,9.846z"/>
<path d="M246.154,265.846c-2.59,0-5.13,1.053-6.961,2.885c-1.831,1.831-2.885,4.362-2.885,6.961c0,2.59,1.054,5.13,2.885,6.96
	c1.831,1.831,4.372,2.886,6.961,2.886c2.59,0,5.13-1.054,6.961-2.886c1.831-1.83,2.885-4.371,2.885-6.96
	c0-2.59-1.054-5.13-2.885-6.961C251.284,266.9,248.753,265.846,246.154,265.846z"/>
<path d="M187.077,324.923H98.462C44.17,324.923,0,369.092,0,423.385v78.769C0,507.591,4.408,512,9.846,512l0,0h492.308l0,0
	c5.438,0,9.846-4.409,9.846-9.846v-78.769c0-54.293-44.17-98.462-98.462-98.462l0,0h-88.615v-39.928
	c44.246-4.914,78.769-42.537,78.769-88.072V83.633V60.062C403.692,26.943,376.749,0,343.631,0H168.369
	c-33.119,0-60.062,26.943-60.062,60.062v47.201v89.66c0,45.535,34.524,83.158,78.769,88.072V324.923 M356.939,344.615
	l-45.531,77.402c-7.01-7.97-16.233-13.715-26.539-16.475l35.522-60.387c0.115-0.179,0.237-0.366,0.348-0.54H356.939z
	 M225.372,492.308l-8.108-68.923h51.48h2.026c0.775,0,1.544,0.035,2.308,0.086c0.207,0.014,0.413,0.03,0.618,0.047
	c0.665,0.056,1.326,0.129,1.981,0.223c0.107,0.016,0.217,0.025,0.323,0.041c0.698,0.106,1.387,0.242,2.074,0.39
	c0.281,0.061,0.56,0.126,0.839,0.194c0.438,0.105,0.871,0.224,1.303,0.347c0.541,0.155,1.076,0.322,1.606,0.502
	c0.302,0.101,0.605,0.203,0.903,0.312c0.44,0.163,0.875,0.336,1.308,0.516c0.122,0.051,0.242,0.104,0.364,0.157
	c6.918,2.99,12.664,8.185,16.358,14.693c0.163,0.289,0.327,0.579,0.482,0.874c0.162,0.306,0.321,0.613,0.475,0.925
	c0.291,0.596,0.573,1.199,0.833,1.817c1.729,4.106,2.687,8.612,2.687,13.339c0,19.002-15.459,34.462-34.462,34.462H225.372z
	 M263.111,403.692h-48.165l-4.334-36.839C221.603,376.056,236.68,384,256,384c7.5,0,14.352-1.209,20.583-3.211L263.111,403.692z
	 M128,60.062c0-22.259,18.11-40.369,40.369-40.369h175.262c22.259,0,40.369,18.11,40.369,40.369v18.151
	c-21.758,13.088-49.5,20.249-78.769,20.249c-28.989,0-56.916-7.162-78.634-20.166c-0.002-0.001-0.004-0.002-0.006-0.003
	c-11.803-7.069-21.241-15.464-28.055-24.954c-3.171-4.417-9.323-5.426-13.74-2.256c-4.417,3.171-5.427,9.323-2.256,13.74
	c5.406,7.529,12.074,14.444,19.906,20.676c-19.133,8.41-41.524,12.962-64.6,12.962c-3.282,0-6.571-0.093-9.846-0.275V60.062z
	 M128,196.923V117.9c3.278,0.164,6.566,0.254,9.846,0.254c30.324,0,59.794-7.099,83.692-20.079
	c23.899,12.98,53.368,20.079,83.692,20.079c28.473,0,55.823-6.149,78.769-17.523v96.292c0,38.004-30.919,68.923-68.923,68.923
	h-39.385c-5.438,0-9.846,4.409-9.846,9.846c0,5.437,4.408,9.846,9.846,9.846h29.538v46.55l-1.293,2.198
	c-5.762,8.947-22.079,30.022-47.938,30.022c-28.194,0-45.048-25.054-49.231-32.102v-56.513c0-5.437-4.408-9.846-9.846-9.846
	C158.919,265.846,128,234.927,128,196.923z M19.692,423.385c0-43.433,35.336-78.769,78.769-78.769h10.936l6.95,59.077H78.769
	c-5.438,0-9.846,4.409-9.846,9.846c0,5.437,4.408,9.846,9.846,9.846h39.896l8.108,68.923H19.692V423.385z M146.71,492.308
	l-8.396-79.765c-0.001-0.008-0.002-0.017-0.003-0.025l-7.146-67.903h57.003l17.376,147.692H146.71z M312.512,492.308
	c7.749-9.37,12.411-21.381,12.411-34.462c0-5.534-0.838-10.874-2.388-15.906l57.249-97.324h33.754
	c43.433,0,78.769,35.336,78.769,78.769v29.538h-59.077c-5.438,0-9.846,4.409-9.846,9.846s4.408,9.846,9.846,9.846h59.077v19.692
	H312.512z"/>
<path d="M240.82,220.996c5.639-2.907,10.745-4.381,15.18-4.381c4.435,0,9.543,1.474,15.183,4.383
	c1.443,0.743,2.985,1.096,4.504,1.096c3.568,0,7.012-1.947,8.759-5.337c2.492-4.833,0.594-10.771-4.24-13.264
	c-8.457-4.36-16.602-6.57-24.206-6.57c-7.605,0-15.749,2.21-24.205,6.571c-4.833,2.491-6.731,8.43-4.239,13.264
	C230.049,221.592,235.987,223.489,240.82,220.996z"/>
<path d="M403.692,452.923c-2.59,0-5.13,1.053-6.961,2.885c-1.831,1.831-2.885,4.372-2.885,6.961s1.054,5.13,2.885,6.96
	c1.831,1.831,4.372,2.886,6.961,2.886c2.59,0,5.13-1.054,6.961-2.886c1.831-1.83,2.885-4.371,2.885-6.96s-1.054-5.13-2.885-6.961
	C408.822,453.977,406.282,452.923,403.692,452.923z"/>
<g>
</g>
<g>
</g>
<g>
</g>
<g>
</g>
<g>
</g>
<g>
</g>
<g>
</g>
<g>
</g>
<g>
</g>
<g>
</g>
<g>
</g>
<g>
</g>
<g>
</g>
<g>
</g>
<g>
</g>
</svg>
