<?xml version="1.0" encoding="iso-8859-1"?>
<!-- Generator: Adobe Illustrator 19.0.0, SVG Export Plug-In . SVG Version: 6.00 Build 0)  -->
<svg version="1.1" id="Capa_1" xmlns="http://www.w3.org/2000/svg" xmlns:xlink="http://www.w3.org/1999/xlink" x="0px" y="0px"
	 viewBox="0 0 512 512" style="enable-background:new 0 0 512 512;" xml:space="preserve">
<path style="opacity:0.2;fill:#F8B64C;enable-background:new    ;" d="M243.733,252.8c-4.267,18.133-2.133,34.133,5.333,36.267
	S264,277.333,269.333,259.2c3.2-10.667,2.133-32-5.333-36.267C257.6,219.733,248,234.667,243.733,252.8z"/>
<path style="fill:#F2F2F2;" d="M328,348.8c-7.467-2.133-14.933-4.267-21.333-7.467c-7.467,6.4-16,11.733-23.467,18.133
	c-10.667-6.4-20.267-13.867-28.8-21.333c3.2-9.6,7.467-19.2,10.667-27.733c-5.333-5.333-9.6-11.733-12.8-18.133
	c-9.6,0-20.267,1.067-29.867,1.067c-4.267-10.667-8.533-22.4-10.667-34.133c8.533-5.333,17.067-10.667,24.533-17.067
	c0-3.2-1.067-7.467-1.067-11.733s0-7.467,1.067-11.733c-8.533-5.333-16-10.667-24.533-17.067c3.2-11.733,6.4-23.467,10.667-34.133
	c9.6,0,20.267,1.067,29.867,1.067c4.267-6.4,8.533-12.8,12.8-18.133c-3.2-9.6-6.4-18.133-10.667-27.733
	c9.6-7.467,19.2-14.933,28.8-21.333c7.467,6.4,16,12.8,23.467,18.133c6.4-3.2,13.867-5.333,21.333-7.467
	c3.2-6.4,5.333-16,8.533-25.6c5.333-1.067,11.733-1.067,18.133-1.067v-64C354.667,9.6,345.067,0,333.333,0h-297.6
	C24,0,14.4,9.6,14.4,21.333v469.333C14.4,502.4,24,512,35.733,512h297.6c11.733,0,21.333-9.6,21.333-21.333v-112
	c-6.4,0-11.733,0-18.133-1.067C333.333,368,331.2,358.4,328,348.8z"/>
<g>
	<circle style="fill:#CDD6E0;" cx="184" cy="458.67" r="25.6"/>
	<path style="fill:#CDD6E0;" d="M219.2,34.133h-69.333c-3.2,0-5.333-2.133-5.333-5.333l0,0c0-3.2,2.133-5.333,5.333-5.333h70.4
		c3.2,0,5.333,2.133,5.333,5.333l0,0C224.533,32,222.4,34.133,219.2,34.133z"/>
</g>
<path style="fill:#FF7058;" d="M474.133,231.467c0-4.267,0-7.467-1.067-11.733c8.533-5.333,16-10.667,24.533-17.067
	c-3.2-11.733-6.4-23.467-10.667-34.133c-9.6,0-20.267,1.067-29.867,1.067c-4.267-6.4-8.533-12.8-12.8-18.133
	c3.2-9.6,6.4-18.133,10.667-27.733c-9.6-7.467-19.2-14.933-28.8-21.333c-7.467,6.4-16,12.8-23.467,18.133
	c-6.4-3.2-13.867-5.333-21.333-7.467c-3.2-9.6-5.333-19.2-8.533-28.8c-11.733-1.067-24.533-1.067-36.267,0
	C333.333,96,331.2,105.6,328,115.2c-7.467,2.133-14.933,4.267-21.333,7.467c-7.467-6.4-16-12.8-23.467-18.133
	c-10.667,6.4-20.267,13.867-28.8,21.333c3.2,9.6,7.467,19.2,10.667,27.733c-5.333,5.333-9.6,11.733-12.8,18.133
	c-9.6,0-20.267-1.067-29.867-1.067c-4.267,10.667-8.533,22.4-10.667,34.133c8.533,5.333,17.067,10.667,24.533,17.067
	c0,3.2-1.067,7.467-1.067,11.733s0,7.467,1.067,11.733c-8.533,5.333-16,10.667-24.533,17.067c3.2,11.733,6.4,23.467,10.667,34.133
	c9.6,0,20.267-1.067,29.867-1.067c4.267,6.4,8.533,12.8,12.8,18.133c-3.2,9.6-6.4,18.133-10.667,27.733
	c9.6,7.467,19.2,14.933,28.8,21.333c7.467-6.4,16-12.8,23.467-18.133c6.4,3.2,13.867,5.333,21.333,7.467
	c3.2,9.6,5.333,19.2,8.533,28.8c11.733,1.067,24.533,1.067,36.267,0c3.2-9.6,5.333-19.2,8.533-28.8
	c7.467-2.133,14.933-4.267,21.333-7.467c7.467,6.4,16,12.8,23.467,18.133c10.667-6.4,20.267-13.867,28.8-21.333
	c-3.2-9.6-7.467-19.2-10.667-27.733c5.333-5.333,9.6-11.733,12.8-18.133c9.6,0,20.267,1.067,29.867,1.067
	c4.267-10.667,8.533-22.4,10.667-34.133c-8.533-5.333-17.067-10.667-24.533-17.067C474.133,238.933,474.133,235.733,474.133,231.467
	z"/>
<circle style="fill:#40596B;" cx="354.67" cy="231.47" r="61.867"/>
<path style="fill:#84DBFF;" d="M306.667,341.333c-7.467,6.4-16,11.733-23.467,18.133c-10.667-6.4-20.267-13.867-28.8-21.333
	c3.2-9.6,7.467-19.2,10.667-27.733c-5.333-5.333-9.6-11.733-12.8-18.133c-9.6,0-20.267,1.067-29.867,1.067
	c-4.267-10.667-8.533-22.4-10.667-34.133c8.533-5.333,17.067-10.667,24.533-17.067c0-3.2-1.067-7.467-1.067-11.733
	s0-7.467,1.067-11.733c-8.533-5.333-16-10.667-24.533-17.067c3.2-11.733,6.4-23.467,10.667-34.133c9.6,0,20.267,1.067,29.867,1.067
	c4.267-6.4,8.533-12.8,12.8-18.133c-3.2-9.6-6.4-18.133-10.667-27.733c9.6-7.467,19.2-14.933,28.8-21.333
	c7.467,6.4,16,12.8,23.467,18.133c2.133-1.067,3.2-1.067,5.333-2.133V58.667H57.067v346.667H312v-61.867
	C309.867,343.467,308.8,342.4,306.667,341.333z"/>
<path style="fill:#F8B64C;" d="M416.533,169.6L416.533,169.6l-22.4,22.4l0,0c21.333,21.333,21.333,56.533,0,78.933
	s-56.533,21.333-78.933,0l0,0l-22.4,22.4l0,0c34.133,34.133,89.6,34.133,123.733,0C450.667,259.2,450.667,203.733,416.533,169.6z"/>
<path style="fill:#FFD15C;" d="M315.2,192c21.333-21.333,56.533-21.333,78.933,0l22.4-22.4c-34.133-34.133-89.6-34.133-123.733,0
	s-34.133,89.6,0,123.733l22.4-22.4C292.8,249.6,292.8,214.4,315.2,192z"/>
<g>
</g>
<g>
</g>
<g>
</g>
<g>
</g>
<g>
</g>
<g>
</g>
<g>
</g>
<g>
</g>
<g>
</g>
<g>
</g>
<g>
</g>
<g>
</g>
<g>
</g>
<g>
</g>
<g>
</g>
</svg>
