<?xml version="1.0" encoding="iso-8859-1"?>
<!-- Generator: Adobe Illustrator 19.0.0, SVG Export Plug-In . SVG Version: 6.00 Build 0)  -->
<svg version="1.1" id="Layer_1" xmlns="http://www.w3.org/2000/svg" xmlns:xlink="http://www.w3.org/1999/xlink" x="0px" y="0px"
	 viewBox="0 0 473.931 473.931" style="enable-background:new 0 0 473.931 473.931;" xml:space="preserve">
<circle style="fill:#49A0AE;" cx="236.966" cy="236.966" r="236.966"/>
<g>
	<path style="fill:#E9B82B;" d="M187.369,240.887c0,0,28.318,28.628,12.576,70.349c-15.177,40.231-43.614,72.99-43.614,72.99
		c-40.976-40.976-40.976-107.415,0-148.398C197.314,194.841,187.369,240.887,187.369,240.887z"/>
	<path style="fill:#E9B82B;" d="M301.844,240.887c0,0-28.325,28.628-12.576,70.349c15.173,40.231,43.614,72.99,43.614,72.99
		c40.969-40.976,40.976-107.415-0.007-148.398C291.891,194.841,301.844,240.887,301.844,240.887z"/>
</g>
<path style="fill:#E9C29C;" d="M346.921,253.59c0,57.979-46.978,104.96-104.938,104.96c-57.952,0-104.938-46.982-104.938-104.96
	c0-57.941,46.985-104.93,104.938-104.93C299.943,148.66,346.921,195.645,346.921,253.59z"/>
<path style="fill:#F1EDCD;" d="M341.922,234.391c0,0,32.969-171.455-99.939-171.455S142.06,234.391,142.06,234.391
	c0-47.307,52.605-85.675,99.924-85.675S341.922,187.084,341.922,234.391z"/>
<g>
	<path style="fill:#E2BE28;" d="M313.829,225.991c0,0-19.001,19.203-8.434,47.18c10.181,26.986,29.253,48.961,29.253,48.961
		c27.487-27.487,27.487-72.051,0-99.542C307.157,195.099,313.829,225.991,313.829,225.991z"/>
	<path style="fill:#E2BE28;" d="M167.073,232.161c0,0,19.001,19.21,8.441,47.187c-10.181,26.989-29.253,48.961-29.253,48.961
		c-27.479-27.487-27.487-72.055,0.007-99.542C173.752,201.277,167.073,232.161,167.073,232.161z"/>
</g>
<g>
	<ellipse style="fill:#343433;" cx="210.511" cy="269.182" rx="14.38" ry="15.188"/>
	<ellipse style="fill:#343433;" cx="272.849" cy="269.182" rx="14.38" ry="15.188"/>
</g>
<g>
	<path style="fill:#FFFFFF;" d="M283.068,263.435c0,3.349-2.567,6.08-5.744,6.08c-3.166,0-5.736-2.732-5.736-6.08
		c0-3.36,2.574-6.073,5.736-6.073C280.505,257.362,283.068,260.071,283.068,263.435z"/>
	<path style="fill:#FFFFFF;" d="M220.622,263.435c0,3.349-2.574,6.08-5.759,6.08c-3.173,0-5.744-2.732-5.744-6.08
		c0-3.36,2.574-6.073,5.744-6.073C218.047,257.362,220.622,260.071,220.622,263.435z"/>
</g>
<path style="fill:#EDC92C;" d="M346.921,253.59l-71.546-64.37c0,0-15.244,25.234-55.872,43.603
	c-39.187,17.717-82.457,20.767-82.457,20.767c0-57.941,46.985-104.93,104.938-104.93C299.943,148.66,346.921,195.645,346.921,253.59
	z"/>
<g>
	<circle style="fill:#F1EDCD;stroke:#E9D8B8;stroke-width:0.25;stroke-miterlimit:10;" cx="243.364" cy="112.515" r="32.609"/>
	<g>
		<path style="fill:#D62127;" d="M249.957,132.339c0,2.122-1.71,3.85-3.828,3.85h-5.545c-2.11,0-3.828-1.729-3.828-3.85V92.713
			c0-2.133,1.717-3.843,3.828-3.843h5.545c2.118,0,3.828,1.71,3.828,3.843V132.339z"/>
		<path style="fill:#D62127;" d="M223.536,119.141c-2.118,0-3.835-1.717-3.835-3.843v-5.545c0-2.11,1.717-3.835,3.835-3.835h39.64
			c2.11,0,3.828,1.725,3.828,3.835v5.545c0,2.125-1.717,3.843-3.828,3.843H223.536z"/>
	</g>
</g>
<g>
</g>
<g>
</g>
<g>
</g>
<g>
</g>
<g>
</g>
<g>
</g>
<g>
</g>
<g>
</g>
<g>
</g>
<g>
</g>
<g>
</g>
<g>
</g>
<g>
</g>
<g>
</g>
<g>
</g>
</svg>
