<?xml version="1.0" encoding="iso-8859-1"?>
<!-- Generator: Adobe Illustrator 19.0.0, SVG Export Plug-In . SVG Version: 6.00 Build 0)  -->
<svg version="1.1" id="Capa_1" xmlns="http://www.w3.org/2000/svg" xmlns:xlink="http://www.w3.org/1999/xlink" x="0px" y="0px"
	 viewBox="0 0 512 512" style="enable-background:new 0 0 512 512;" xml:space="preserve">
<path style="fill:#415A6B;" d="M391.973,0H121.04c-18.133,0-32,13.867-32,32v448c0,18.133,13.867,32,32,32h269.867
	c18.133,0,32-13.867,32-32V32C423.973,13.867,409.04,0,391.973,0z"/>
<rect x="131.706" y="72.533" style="fill:#F3F3F3;" width="248.533" height="332.8"/>
<g>
	<path style="fill:#344A5E;" d="M290.64,26.667h-67.2c-5.333,0-9.6,4.267-9.6,9.6s4.267,9.6,9.6,9.6h67.2c5.333,0,9.6-4.267,9.6-9.6
		S295.973,26.667,290.64,26.667z"/>
	<circle style="fill:#344A5E;" cx="256.506" cy="458.667" r="28.8"/>
</g>
<path style="fill:#F3705A;" d="M350.373,197.333c0,70.4-71.467,93.867-93.867,131.2c-22.4-36.267-93.867-59.733-93.867-131.2
	c0-26.667,21.333-48,48-48c21.333,0,39.467,13.867,45.867,32c6.4-19.2,24.533-32,45.867-32
	C329.04,149.333,350.373,170.667,350.373,197.333z"/>
<ellipse transform="matrix(-0.6414 -0.7672 0.7672 -0.6414 382.0099 543.4695)" style="fill:#FFFFFF;" cx="318.016" cy="182.458" rx="18.133" ry="9.6"/>
<g>
</g>
<g>
</g>
<g>
</g>
<g>
</g>
<g>
</g>
<g>
</g>
<g>
</g>
<g>
</g>
<g>
</g>
<g>
</g>
<g>
</g>
<g>
</g>
<g>
</g>
<g>
</g>
<g>
</g>
</svg>
