<?xml version="1.0" encoding="iso-8859-1"?>
<!-- Generator: Adobe Illustrator 19.0.0, SVG Export Plug-In . SVG Version: 6.00 Build 0)  -->
<svg version="1.1" id="Capa_1" xmlns="http://www.w3.org/2000/svg" xmlns:xlink="http://www.w3.org/1999/xlink" x="0px" y="0px"
	 viewBox="0 0 512 512" style="enable-background:new 0 0 512 512;" xml:space="preserve">
<path style="fill:#415A6B;" d="M393.04,0H119.973c-18.133,0-32,13.867-32,32v448c0,18.133,13.867,32,32,32h272
	c18.133,0,32-13.867,32-32V32C425.04,13.867,410.106,0,393.04,0z"/>
<rect x="87.973" y="64" style="fill:#F3F3F3;" width="336" height="341.333"/>
<circle style="fill:#344A5E;" cx="256.506" cy="458.667" r="26.667"/>
<path style="fill:#F3705A;" d="M256.506,347.733c0,0-128-71.467-128-163.2c0-35.2,28.8-62.933,65.067-62.933
	c29.867,0,55.467,19.2,62.933,45.867c7.467-26.667,33.067-45.867,62.933-45.867c36.267,0,65.067,27.733,65.067,62.933
	C384.506,275.2,256.506,347.733,256.506,347.733z"/>
<path style="fill:#FFFFFF;" d="M354.64,166.4c7.467,12.8,8.533,25.6,2.133,28.8c-6.4,3.2-17.067-4.267-24.533-17.067
	c-7.467-12.8-8.533-25.6-2.133-28.8C335.44,146.133,347.173,153.6,354.64,166.4z"/>
<path style="fill:#F05540;" d="M157.306,132.267c-17.067,11.733-28.8,30.933-28.8,52.267c0,90.667,128,163.2,128,163.2
	C153.04,269.867,148.773,177.067,157.306,132.267z"/>
<path style="fill:#344A5E;" d="M288.506,40.533h-64c-4.267,0-8.533-4.267-8.533-8.533l0,0c0-4.267,4.267-8.533,8.533-8.533h64
	c4.267,0,8.533,4.267,8.533,8.533l0,0C297.04,36.267,293.84,40.533,288.506,40.533z"/>
<g>
</g>
<g>
</g>
<g>
</g>
<g>
</g>
<g>
</g>
<g>
</g>
<g>
</g>
<g>
</g>
<g>
</g>
<g>
</g>
<g>
</g>
<g>
</g>
<g>
</g>
<g>
</g>
<g>
</g>
</svg>
