<?xml version="1.0" encoding="iso-8859-1"?>
<!-- Generator: Adobe Illustrator 19.0.0, SVG Export Plug-In . SVG Version: 6.00 Build 0)  -->
<svg version="1.1" id="Capa_1" xmlns="http://www.w3.org/2000/svg" xmlns:xlink="http://www.w3.org/1999/xlink" x="0px" y="0px"
	 viewBox="0 0 512 512" style="enable-background:new 0 0 512 512;" xml:space="preserve">
<path style="fill:#40596B;" d="M332.8,0h-288C33.067,0,23.467,9.6,23.467,21.333v469.333C23.467,502.4,33.067,512,44.8,512h288
	c11.733,0,21.333-9.6,21.333-21.333V21.333C354.133,9.6,344.533,0,332.8,0z"/>
<rect x="66.133" y="62.933" style="fill:#FFFFFF;" width="245.333" height="343.467"/>
<g>
	<path style="fill:#334A5E;" d="M261.333,30.933L261.333,30.933c0-4.267-3.2-8.533-8.533-8.533H148.267
		c-4.267,0-8.533,3.2-8.533,8.533l0,0c0,4.267,3.2,8.533,8.533,8.533H252.8C257.067,39.467,261.333,36.267,261.333,30.933z"/>
	<circle style="fill:#334A5E;" cx="188.8" cy="459.733" r="27.733"/>
</g>
<g>
	<path style="fill:#CDD6E0;" d="M188.8,295.467c-50.133,0-90.667-35.2-90.667-77.867V96c0-6.4,4.267-10.667,10.667-10.667h24.533
		v21.333h-13.867v112c0,30.933,30.933,56.533,69.333,56.533s69.333-25.6,69.333-56.533v-112h-13.867V85.333H268.8
		c6.4,0,10.667,4.267,10.667,10.667v122.667C280.533,260.267,238.933,295.467,188.8,295.467z"/>
	<path style="fill:#CDD6E0;" d="M274.133,375.467h-26.667c-38.4,0-69.333-30.933-69.333-69.333V284.8h21.333v21.333
		c0,26.667,21.333,48,48,48h26.667c26.667,0,48-21.333,48-48V217.6c0-38.4,30.933-69.333,69.333-69.333S460.8,179.2,460.8,217.6
		v30.933h-21.333V217.6c0-26.667-21.333-48-48-48c-26.667,0-48,21.333-48,48v88.533
		C343.467,344.533,312.533,375.467,274.133,375.467z"/>
</g>
<path style="fill:#FF7058;" d="M449.067,312.533c-21.333,0-39.467-17.067-39.467-39.467c0-21.333,17.067-39.467,39.467-39.467
	s39.467,17.067,39.467,39.467C488.533,295.467,470.4,312.533,449.067,312.533z"/>
<circle style="fill:#FFFFFF;" cx="449.067" cy="274.133" r="17.067"/>
<path style="fill:#54C0EB;" d="M188.8,300.8c-53.333,0-96-37.333-96-83.2h32c0,27.733,28.8,51.2,64,51.2s64-22.4,64-51.2h32
	C285.867,263.467,242.133,300.8,188.8,300.8z"/>
<g>
	<path style="fill:#ACB3BA;" d="M141.867,83.2H134.4v24.533h7.467c6.4,0,12.8-5.333,12.8-11.733l0,0
		C153.6,88.533,148.267,83.2,141.867,83.2z"/>
	<path style="fill:#ACB3BA;" d="M236.8,107.733h8.533V83.2h-7.467c-6.4,0-11.733,5.333-11.733,12.8l0,0
		C225.067,102.4,230.4,107.733,236.8,107.733z"/>
</g>
<g>
</g>
<g>
</g>
<g>
</g>
<g>
</g>
<g>
</g>
<g>
</g>
<g>
</g>
<g>
</g>
<g>
</g>
<g>
</g>
<g>
</g>
<g>
</g>
<g>
</g>
<g>
</g>
<g>
</g>
</svg>
