<?xml version="1.0" encoding="iso-8859-1"?>
<!-- Generator: Adobe Illustrator 19.0.0, SVG Export Plug-In . SVG Version: 6.00 Build 0)  -->
<svg version="1.1" id="Capa_1" xmlns="http://www.w3.org/2000/svg" xmlns:xlink="http://www.w3.org/1999/xlink" x="0px" y="0px"
	 viewBox="0 0 512 512" style="enable-background:new 0 0 512 512;" xml:space="preserve">
<path style="fill:#40596B;" d="M410.667,0H101.333C89.6,0,80,9.6,80,21.333v469.333C80,502.4,89.6,512,101.333,512h309.333
	C422.4,512,432,502.4,432,490.667V21.333C432,9.6,422.4,0,410.667,0z"/>
<rect x="122.667" y="62.933" style="fill:#FF7058;" width="266.667" height="343.467"/>
<g>
	<path style="fill:#334A5E;" d="M327.467,30.933L327.467,30.933c0-4.267-3.2-8.533-8.533-8.533H214.4
		c-4.267,0-8.533,3.2-8.533,8.533l0,0c0,4.267,3.2,8.533,8.533,8.533H320C324.267,39.467,327.467,36.267,327.467,30.933z"/>
	<circle style="fill:#334A5E;" cx="256" cy="459.733" r="30.933"/>
</g>
<path style="fill:#FFFFFF;" d="M295.467,151.467c-16,0-29.867,6.4-39.467,17.067c-9.6-10.667-23.467-17.067-39.467-17.067
	c-28.8,0-53.333,23.467-53.333,53.333c0,44.8,91.733,113.067,91.733,113.067s91.733-67.2,91.733-113.067
	C347.733,176,324.267,151.467,295.467,151.467z"/>
<path style="fill:#40596B;" d="M264.533,270.933L264.533,270.933c-2.133,0-4.267-2.133-4.267-4.267L252.8,198.4l-17.067,44.8
	c-1.067,2.133-2.133,3.2-4.267,3.2l0,0c-2.133,0-3.2-1.067-4.267-3.2l-10.667-28.8l-13.867,13.867
	c-1.067,1.067-2.133,1.067-3.2,1.067H156.8c-2.133,0-4.267-2.133-4.267-4.267c0-2.133,2.133-4.267,4.267-4.267h41.6l17.067-17.067
	c1.067-1.067,2.133-1.067,4.267-1.067c1.067,0,2.133,1.067,3.2,3.2l9.6,25.6l19.2-51.2c1.067-2.133,2.133-3.2,4.267-3.2
	c2.133,0,3.2,2.133,3.2,4.267l7.467,70.4L286.933,208c1.067-1.067,2.133-2.133,3.2-2.133c2.133,0,3.2,1.067,4.267,2.133
	l14.933,26.667L314.667,224c1.067-1.067,2.133-2.133,4.267-2.133h35.2c2.133,0,4.267,2.133,4.267,4.267
	c0,2.133-2.133,4.267-4.267,4.267h-33.067l-7.467,14.933c-1.067,1.067-2.133,2.133-3.2,2.133l0,0c-1.067,0-3.2-1.067-3.2-2.133
	l-14.933-26.667L268.8,267.733C267.733,269.867,266.667,270.933,264.533,270.933z"/>
<g>
</g>
<g>
</g>
<g>
</g>
<g>
</g>
<g>
</g>
<g>
</g>
<g>
</g>
<g>
</g>
<g>
</g>
<g>
</g>
<g>
</g>
<g>
</g>
<g>
</g>
<g>
</g>
<g>
</g>
</svg>
