<?xml version="1.0" encoding="iso-8859-1"?>
<!-- Generator: Adobe Illustrator 19.1.0, SVG Export Plug-In . SVG Version: 6.00 Build 0)  -->
<svg version="1.1" id="Capa_1" xmlns="http://www.w3.org/2000/svg" xmlns:xlink="http://www.w3.org/1999/xlink" x="0px" y="0px"
	 viewBox="0 0 217.228 217.228" style="enable-background:new 0 0 217.228 217.228;" xml:space="preserve">
<g>
	<g id="group-151svg">
		<path id="path-1_58_" style="fill:#FF3A2F;" d="M55.714,176.961H39.575c-3.111,0-5.633,1.91-5.633,4.264
			c0,2.355,2.522,4.265,5.633,4.265h0.751c3.112,0,5.634,1.909,5.634,4.263c0,2.355-2.522,4.264-5.634,4.264H5.634
			c-3.111,0-5.634,1.909-5.634,4.264c0,2.354,2.523,4.264,5.634,4.264h41.692h85.216c3.111,0,5.633-1.91,5.633-4.264
			c0-2.355-2.522-4.264-5.633-4.264h-9.629c-3.111,0-5.634-1.909-5.634-4.264c0-2.354,2.523-4.263,5.634-4.263h37.816
			c3.111,0,5.633-1.91,5.633-4.265c0-2.354-2.522-4.264-5.633-4.264h-2.823H55.714z"/>
		<path id="path-2_58_" style="fill:#FF3A2F;" d="M155.802,203.687c-2.608,0-4.723-2.046-4.723-4.57c0-2.523,2.115-4.57,4.723-4.57
			h14.475c2.608,0,4.724,2.047,4.724,4.57c0,2.524-2.116,4.57-4.724,4.57H155.802z"/>
		<path id="path-3_58_" style="fill:#FBB713;" d="M93.153,188.304c-13.739,3.264-28.797-0.464-39.515-11.174
			c-10.718-10.717-14.441-25.782-11.177-39.518L165.393,14.689v-0.004c13.739-3.264,28.797,0.464,39.515,11.18
			c10.718,10.714,14.441,25.775,11.177,39.51L93.153,188.304z"/>
		<path id="path-4_58_" style="fill:#EDEDED;" d="M79.598,133.643c-1.446,0-2.822-0.58-3.836-1.593
			c-1.015-1.012-1.595-2.389-1.595-3.838c0-1.412,0.58-2.823,1.595-3.838c1.99-1.989,5.611-2.027,7.675,0
			c1.015,1.015,1.591,2.426,1.591,3.838c0,1.449-0.576,2.826-1.591,3.838C82.423,133.063,81.012,133.643,79.598,133.643z"/>
		<path id="path-5_57_" style="fill:#EDEDED;" d="M102.554,156.595c-1.449,0-2.825-0.578-3.839-1.593
			c-1.015-1.013-1.591-2.425-1.591-3.838c0-1.41,0.576-2.823,1.555-3.836c2.066-2.027,5.686-2.027,7.712,0
			c1.014,1.013,1.594,2.426,1.594,3.836c0,1.413-0.58,2.825-1.594,3.838C105.376,156.017,103.965,156.595,102.554,156.595z"/>
		<path id="path-6_55_" style="fill:#EDEDED;" d="M64.285,148.957c-1.412,0-2.823-0.578-3.838-1.593
			c-1.013-1.013-1.593-2.425-1.593-3.838c0-1.447,0.58-2.823,1.593-3.839c2.028-2.026,5.684-2.026,7.676,0
			c1.013,1.016,1.592,2.426,1.592,3.839c0,1.413-0.579,2.825-1.592,3.838C67.108,148.379,65.733,148.957,64.285,148.957z"/>
		<path id="path-7_54_" style="fill:#EDEDED;" d="M87.238,171.91c-1.411,0-2.825-0.579-3.836-1.595
			c-1.015-1.012-1.595-2.424-1.595-3.836c0-1.448,0.58-2.858,1.595-3.873c2.026-1.99,5.647-1.99,7.676,0
			c1.011,1.05,1.591,2.425,1.591,3.873c0,1.412-0.58,2.824-1.591,3.836C90.064,171.331,88.649,171.91,87.238,171.91z"/>
		<path id="path-8_40_" style="fill:#EDEDED;" d="M171.305,41.975c-1.446,0-2.822-0.614-3.837-1.591
			c-1.014-1.016-1.594-2.426-1.594-3.839c0-1.448,0.58-2.859,1.594-3.875c1.991-1.989,5.647-1.989,7.676,0
			c1.015,1.016,1.591,2.427,1.591,3.875c0,1.413-0.576,2.789-1.591,3.801C174.129,41.361,172.719,41.975,171.305,41.975z"/>
		<path id="path-9_34_" style="fill:#EDEDED;" d="M194.261,64.893c-1.449,0-2.824-0.58-3.839-1.592
			c-1.015-0.978-1.592-2.391-1.592-3.839c0-1.411,0.577-2.825,1.592-3.838c1.99-2.027,5.65-2.027,7.676,0
			c1.014,1.013,1.594,2.427,1.594,3.838c0,1.448-0.58,2.861-1.594,3.839C197.083,64.313,195.672,64.893,194.261,64.893z"/>
		<path id="path-10_31_" style="fill:#EDEDED;" d="M155.992,57.252c-1.411,0-2.825-0.578-3.839-1.592
			c-1.012-1.014-1.592-2.426-1.592-3.839c0-1.447,0.58-2.822,1.592-3.838c2.064-2.025,5.684-2.025,7.675,0
			c1.015,1.016,1.595,2.391,1.595,3.838c0,1.413-0.58,2.825-1.595,3.839C158.852,56.674,157.438,57.252,155.992,57.252z"/>
		<path id="path-11_24_" style="fill:#EDEDED;" d="M178.945,80.206c-1.411,0-2.825-0.579-3.836-1.593
			c-1.015-1.013-1.595-2.426-1.595-3.836c0-1.45,0.58-2.861,1.595-3.839c2.026-2.026,5.646-2.026,7.672,0
			c1.015,1.014,1.595,2.389,1.595,3.839c0,1.41-0.58,2.823-1.595,3.836C181.77,79.627,180.356,80.206,178.945,80.206z"/>
		<path id="path-12_20_" style="fill:#FBB713;" d="M114.94,134.402l-20.046-20.045l47.32-47.32l20.047,20.045L114.94,134.402z"/>
		<path id="path-13_16_" style="opacity:0.25;enable-background:new    ;" d="M114.94,134.402l-20.046-20.045l47.32-47.32
			l20.047,20.045L114.94,134.402z"/>
	</g>
</g>
<g>
</g>
<g>
</g>
<g>
</g>
<g>
</g>
<g>
</g>
<g>
</g>
<g>
</g>
<g>
</g>
<g>
</g>
<g>
</g>
<g>
</g>
<g>
</g>
<g>
</g>
<g>
</g>
<g>
</g>
</svg>
