<?xml version="1.0" encoding="iso-8859-1"?>
<!-- Generator: Adobe Illustrator 19.0.0, SVG Export Plug-In . SVG Version: 6.00 Build 0)  -->
<svg version="1.1" id="Capa_1" xmlns="http://www.w3.org/2000/svg" xmlns:xlink="http://www.w3.org/1999/xlink" x="0px" y="0px"
	 viewBox="0 0 511.48 511.48" style="enable-background:new 0 0 511.48 511.48;" xml:space="preserve">
<g>
	<g>
		<path d="M287.74,287.48c-8.832,0-16,7.168-16,16v60.224l-33.696-67.392c-0.352-0.704-0.96-1.152-1.376-1.76
			c-0.672-0.96-1.28-1.952-2.176-2.752c-0.736-0.672-1.568-1.088-2.368-1.6c-0.928-0.576-1.792-1.216-2.816-1.6
			c-0.992-0.384-2.016-0.448-3.072-0.608c-0.832-0.16-1.6-0.512-2.496-0.512c-0.192,0-0.352,0.096-0.544,0.096
			c-0.992,0.032-1.92,0.384-2.912,0.608c-1.12,0.256-2.208,0.384-3.232,0.864c-0.16,0.064-0.32,0.032-0.48,0.128
			c-0.704,0.352-1.152,0.96-1.792,1.408c-0.96,0.672-1.92,1.28-2.72,2.112c-0.704,0.768-1.152,1.632-1.664,2.496
			c-0.544,0.864-1.152,1.696-1.536,2.688c-0.384,1.056-0.48,2.144-0.64,3.264c-0.128,0.8-0.48,1.504-0.48,2.336v128
			c0,8.832,7.168,16,16,16c8.832,0,16-7.168,16-16v-60.224l33.696,67.36c0.16,0.32,0.512,0.448,0.704,0.768
			c1.152,1.952,2.656,3.584,4.512,4.896c0.544,0.384,1.024,0.768,1.632,1.088c2.24,1.248,4.704,2.112,7.456,2.112
			c2.432,0,4.672-0.608,6.72-1.568c0.128-0.064,0.288-0.032,0.448-0.096c0.704-0.352,1.152-0.96,1.792-1.408
			c0.96-0.672,1.92-1.28,2.72-2.112c0.704-0.736,1.152-1.632,1.664-2.496c0.544-0.896,1.152-1.696,1.536-2.688
			c0.384-1.056,0.48-2.176,0.672-3.264c0.096-0.832,0.448-1.536,0.448-2.368v-128C303.74,294.648,296.572,287.48,287.74,287.48z"/>
	</g>
</g>
<g>
	<g>
		<path d="M255.74,223.48c-79.392,0-144,64.608-144,144s64.608,144,144,144s144-64.608,144-144S335.132,223.48,255.74,223.48z
			 M255.74,479.48c-61.76,0-112-50.24-112-112s50.24-112,112-112s112,50.24,112,112S317.5,479.48,255.74,479.48z"/>
	</g>
</g>
<g>
	<g>
		<path d="M397.084,216.088L269.404,7.128c-5.824-9.504-21.504-9.504-27.328,0l-127.68,208.96
			c-4.16,6.784-2.656,15.616,3.456,20.704c6.208,5.056,15.104,4.832,21.024-0.544c31.552-28.864,73.056-44.768,116.864-44.768
			s85.312,15.904,116.864,44.768c3.072,2.784,6.944,4.192,10.816,4.192c3.584,0,7.232-1.216,10.176-3.648
			C399.74,231.704,401.244,222.872,397.084,216.088z M255.74,159.48c-27.36,0-54.016,5.28-78.592,15.296L255.74,46.168
			l78.592,128.608C309.756,164.76,283.1,159.48,255.74,159.48z"/>
	</g>
</g>
<g>
</g>
<g>
</g>
<g>
</g>
<g>
</g>
<g>
</g>
<g>
</g>
<g>
</g>
<g>
</g>
<g>
</g>
<g>
</g>
<g>
</g>
<g>
</g>
<g>
</g>
<g>
</g>
<g>
</g>
</svg>
