<?xml version="1.0" encoding="utf-8"?>
<!-- Generator: Adobe Illustrator 21.0.2, SVG Export Plug-In . SVG Version: 6.00 Build 0)  -->
<svg version="1.1" id="Capa_1" xmlns="http://www.w3.org/2000/svg" xmlns:xlink="http://www.w3.org/1999/xlink" x="0px" y="0px"
	 viewBox="0 0 58 58" style="enable-background:new 0 0 58 58;" xml:space="preserve">
<style type="text/css">
	.st0{fill:#A6AFB2;}
	.st1{fill:#D4DCDD;}
	.st2{fill:#7383BF;}
	.st3{fill:#F2C394;}
	.st4{fill:#F2B675;}
	.st5{fill:#E7ECED;}
	.st6{fill:#424A60;}
	.st7{fill:#FFFFFF;}
</style>
<rect x="25.7" y="47" class="st0" width="24" height="11"/>
<path class="st1" d="M41.7,58h-16V47h9.4c3.6,0,6.6,2.9,6.6,6.6V58z"/>
<circle class="st2" cx="35.2" cy="52.5" r="2.5"/>
<path class="st3" d="M33.6,10.7c1.2-0.5,2.1-1.8,2.1-3.2c0-1.9-1.6-3.5-3.5-3.5c-1.4,0-2.7,0.9-3.2,2.1L33.6,10.7z"/>
<path class="st3" d="M38.6,15.7c1.2-0.5,2.1-1.8,2.1-3.2c0-1.9-1.6-3.5-3.5-3.5c-1.4,0-2.7,0.9-3.2,2.1L38.6,15.7z"/>
<path class="st3" d="M43.6,20.7c1.2-0.5,2.1-1.8,2.1-3.2c0-1.9-1.6-3.5-3.5-3.5c-1.4,0-2.7,0.9-3.2,2.1L43.6,20.7z"/>
<path class="st3" d="M48.6,25.7c1.2-0.5,2.1-1.8,2.1-3.2c0-1.9-1.6-3.5-3.5-3.5c-1.4,0-2.7,0.9-3.2,2.1L48.6,25.7z"/>
<path class="st3" d="M28.2,33h-10c-1.9,0-3.5-1.6-3.5-3.5l0,0c0-1.9,1.6-3.5,3.5-3.5h10c1.9,0,3.5,1.6,3.5,3.5l0,0
	C31.7,31.4,30.1,33,28.2,33z"/>
<g>
	<path class="st4" d="M48.8,31.6L37.7,42.7c-0.9,0.9-2.3,0.9-3.2,0L24.8,33h-6.6c-0.6,0.3-2.2-0.7-1.5-0.2l10.8,10.8
		c0.1,0.1,0.2,0.1,0.2,0.2V47h20v-4.5c1.8-1.4,3-3.5,3-6C50.7,34.6,50,32.9,48.8,31.6z"/>
</g>
<path class="st5" d="M25.8,2.9L10.2,18.4l7.6,7.6c0.1,0,0.2,0,0.4,0h10c1.9,0,3.5,1.6,3.5,3.5S30.1,33,28.2,33h-3.4l6.4,6.4
	l15.6-15.6L25.8,2.9z"/>
<g>
	<path class="st6" d="M25.8,2.9l-2.2-2.2c-0.9-0.9-2.3-0.9-3.2,0L8,13c-0.9,0.9-0.9,2.3,0,3.2l2.2,2.2L25.8,2.9z"/>
	<path class="st6" d="M50,27.1l-3.3-3.3L31.1,39.4l3.3,3.3c0.9,0.9,2.3,0.9,3.2,0L50,30.4C50.9,29.5,50.9,28,50,27.1z"/>
</g>
<circle class="st7" cx="41.2" cy="33.5" r="2"/>
<path class="st5" d="M15.7,11c-0.3,0-0.5-0.1-0.7-0.3c-0.4-0.4-0.4-1,0-1.4l2-2c0.4-0.4,1-0.4,1.4,0s0.4,1,0,1.4l-2,2
	C16.2,10.9,15.9,11,15.7,11z"/>
</svg>
