<?xml version="1.0" encoding="iso-8859-1"?>
<!-- Generator: Adobe Illustrator 19.0.0, SVG Export Plug-In . SVG Version: 6.00 Build 0)  -->
<svg version="1.1" id="Capa_1" xmlns="http://www.w3.org/2000/svg" xmlns:xlink="http://www.w3.org/1999/xlink" x="0px" y="0px"
	 viewBox="0 0 514.501 514.501" style="enable-background:new 0 0 514.501 514.501;" xml:space="preserve">
<path style="fill:#66C6B9;" d="M364.089,212.584H148.622c-19.2,0-37.333,8.533-42.667,20.267L21.689,439.784
	c-12.8,29.867,4.267,56.533,39.467,56.533h391.467c34.133,0,51.2-26.667,39.467-56.533l-85.333-206.933
	C401.422,221.117,382.222,212.584,364.089,212.584z"/>
<path style="fill:#4ABAA5;" d="M495.289,463.251c1.067-7.467,0-16-3.2-23.467l-85.333-206.933
	c-4.267-11.733-23.467-20.267-42.667-20.267H148.622c-7.467,0-16,1.067-22.4,4.267L495.289,463.251z"/>
<path style="fill:#FFD15C;" d="M347.022,383.251l-329.6,81.067c3.2,18.133,18.133,32,42.667,32h391.467
	c28.8,0,45.867-19.2,42.667-42.667L347.022,383.251z"/>
<g>
	<path style="fill:#F3F3F3;" d="M452.622,513.384H60.089c-22.4,0-40.533-8.533-51.2-24.533s-11.733-36.267-3.2-55.467
		l85.333-206.933c8.533-20.267,35.2-30.933,58.667-30.933h215.467c22.4,0,50.133,10.667,58.667,30.933l85.333,206.933
		c8.533,20.267,6.4,40.533-3.2,55.467C493.156,504.851,473.956,513.384,452.622,513.384z M148.622,229.651
		c-13.867,0-25.6,6.4-26.667,9.6L36.622,446.184c-4.267,9.6-3.2,17.067,0,23.467c4.267,6.4,11.733,9.6,22.4,9.6h391.467
		c10.667,0,19.2-3.2,22.4-9.6c4.267-6.4,4.267-13.867,0-23.467l-85.333-206.933c-1.067-3.2-11.733-9.6-26.667-9.6L148.622,229.651
		L148.622,229.651z"/>
	<polygon style="fill:#F3F3F3;" points="131.556,212.584 112.356,240.317 311.822,374.717 27.022,455.784 27.022,461.117 
		32.356,481.384 78.222,481.384 353.422,403.517 469.689,481.384 481.422,481.384 487.822,472.851 487.822,452.584 	"/>
</g>
<path style="fill:#F3705A;" d="M376.889,293.651L256.356,414.184L135.822,293.651c-67.2-67.2-67.2-174.933,0-242.133
	s174.933-67.2,242.133,0C444.089,118.717,444.089,226.451,376.889,293.651z"/>
<path style="fill:#FFFFFF;" d="M140.089,172.051c0-64,52.267-116.267,116.267-116.267s116.267,52.267,116.267,116.267
	c0,65.067-52.267,117.333-116.267,117.333S140.089,237.117,140.089,172.051z"/>
<path style="fill:#F3705A;" d="M300.089,110.184c-20.267,0-37.333,12.8-43.733,30.933c-6.4-18.133-23.467-30.933-43.733-30.933
	c-25.6,0-46.933,21.333-46.933,46.933c0,37.333,90.667,105.6,90.667,105.6s90.667-68.267,90.667-105.6
	C347.022,131.517,325.689,110.184,300.089,110.184z"/>
<ellipse transform="matrix(-0.6436 -0.7654 0.7654 -0.6436 409.7383 477.9313)" style="fill:#FFFFFF;" cx="316.15" cy="143.563" rx="19.201" ry="8.534"/>
<g>
</g>
<g>
</g>
<g>
</g>
<g>
</g>
<g>
</g>
<g>
</g>
<g>
</g>
<g>
</g>
<g>
</g>
<g>
</g>
<g>
</g>
<g>
</g>
<g>
</g>
<g>
</g>
<g>
</g>
</svg>
