<?xml version="1.0" encoding="iso-8859-1"?>
<!-- Generator: Adobe Illustrator 19.0.0, SVG Export Plug-In . SVG Version: 6.00 Build 0)  -->
<svg version="1.1" id="Capa_1" xmlns="http://www.w3.org/2000/svg" xmlns:xlink="http://www.w3.org/1999/xlink" x="0px" y="0px"
	 viewBox="0 0 512 512" style="enable-background:new 0 0 512 512;" xml:space="preserve">
<path style="fill:#66C6B9;" d="M468.267,212.267c0,58.667-23.467,110.933-61.867,150.4L256,512L105.6,361.6
	c-38.4-38.4-61.867-91.733-61.867-150.4C43.733,94.933,138.667,0,256,0S468.267,94.933,468.267,212.267z"/>
<circle style="fill:#FFFFFF;" cx="256" cy="212.267" r="137.6"/>
<path style="fill:#F3705A;" d="M256,311.467c0,0-96-54.4-96-121.6c0-27.733,22.4-50.133,50.133-50.133
	c21.333,0,38.4,12.8,45.867,30.933c7.467-18.133,25.6-30.933,45.867-30.933c27.733,0,50.133,22.4,50.133,50.133
	C352,257.067,256,311.467,256,311.467z"/>
<ellipse transform="matrix(-0.7294 -0.6841 0.6841 -0.7294 428.6398 516.7917)" style="fill:#FFFFFF;" cx="316.533" cy="173.618" rx="19.2" ry="9.6"/>
<g>
</g>
<g>
</g>
<g>
</g>
<g>
</g>
<g>
</g>
<g>
</g>
<g>
</g>
<g>
</g>
<g>
</g>
<g>
</g>
<g>
</g>
<g>
</g>
<g>
</g>
<g>
</g>
<g>
</g>
</svg>
